<?xml version="1.0" standalone="no"?>
<!DOCTYPE svg PUBLIC "-//W3C//DTD SVG 1.1//EN" "http://www.w3.org/Graphics/SVG/1.1/DTD/svg11.dtd" >
<svg xmlns="http://www.w3.org/2000/svg" xmlns:xlink="http://www.w3.org/1999/xlink" version="1.1">
<metadata>
Created by FontForge 20170731 at Thu Nov 19 00:31:07 2020
 By Aleksey,,,
</metadata>
<defs>
<font id="ParisianNormal" horiz-adv-x="903" >
  <font-face 
    font-family="Parisian"
    font-weight="400"
    font-stretch="normal"
    units-per-em="2048"
    panose-1="2 0 5 3 0 0 0 0 0 0"
    ascent="1638"
    descent="-410"
    x-height="946"
    cap-height="1376"
    bbox="-240 -457 2140 1763"
    underline-thickness="36"
    underline-position="-302"
    unicode-range="U+0020-2122"
  />
<missing-glyph horiz-adv-x="441" 
 />
    <glyph glyph-name=".notdef" horiz-adv-x="441" 
 />
    <glyph glyph-name=".notdef" horiz-adv-x="441" 
 />
    <glyph glyph-name=".null" horiz-adv-x="0" 
 />
    <glyph glyph-name="nonmarkingreturn" horiz-adv-x="682" 
 />
    <glyph glyph-name="space" unicode=" " horiz-adv-x="540" 
 />
    <glyph glyph-name="exclam" unicode="!" horiz-adv-x="419" 
d="M348 399h-246q0 718 -1.5 841t-10.5 138q-11 21 -67 66h208v-926q21 -34 54 -68t63 -51zM348 115q0 -50 -38 -83.5t-93 -33.5q-129 0 -129 117q0 52 40.5 91.5t88.5 39.5q53 0 92 -39t39 -92z" />
    <glyph glyph-name="quotedbl" unicode="&#x22;" horiz-adv-x="524" 
d="M457 1130h-131v263h131v-263zM197 1130h-131v263h131v-263z" />
    <glyph glyph-name="numbersign" unicode="#" horiz-adv-x="1032" 
d="M963 909l-23 -131h-131l-49 -276h131l-23 -131h-131l-65 -371h-131l65 371h-276l-66 -371h-131l66 371h-133l22 131h133l49 276h-133l23 131h133l65 369h131l-65 -369h276l66 369h131l-66 -369h132zM678 778h-277l-49 -276h277z" />
    <glyph glyph-name="dollar" unicode="$" horiz-adv-x="892" 
d="M821 436q0 -123 -137 -227q-34 -24 -195 -111q-13 -10 -16 -67q-3 -56 -37 -62q-35 71 -45 86.5t-22 20.5q-38 10 -115 30.5t-115 30.5q-129 53 -129 180q0 80 71.5 138.5t178.5 58.5q98 -14 123 -14q35 0 35 14q0 47 -33.5 69t-200.5 89q-82 49 -82 157q0 98 82 150
q121 52 166.5 75.5t61.5 40.5t18 46h66q1 -47 32 -66t152 -57q63 -29 63 -98q0 -72 -39.5 -95.5t-144.5 -33.5q-63 -9 -63 -41q0 -33 84 -64q139 -50 190 -102.5t51 -147.5zM612 997q-50 7 -53 7q-1 0 -51 -11q23 -97 31.5 -118t29.5 -21q12 0 25 8q13 25 15.5 42.5
t2.5 92.5zM397 1012q-178 -24 -178 -131q0 -105 172 -117q19 66 19 143q0 64 -13 105zM705 397q0 92 -203 178q-1 -7 -12 -93.5t-11 -88.5q0 -59 6 -225q85 41 152.5 112t67.5 117zM391 201q4 14 4 20q0 25 -4 45q-24 -8 -47 -8q-15 0 -90 31q0 23 31 26q43 3 73 43
q-18 19 -60 35.5t-79 16.5q-46 0 -94.5 -35.5t-48.5 -69.5q0 -61 74 -108t163 -47q86 0 86 10q-8 39 -8 41z" />
    <glyph glyph-name="percent" unicode="%" horiz-adv-x="1015" 
d="M524 1049q0 -100 -64.5 -165t-164.5 -65t-164.5 66.5t-64.5 163.5q0 100 66 164.5t163 64.5q100 0 164.5 -64.5t64.5 -164.5zM956 1278l-739 -1278h-151l739 1278h151zM956 229q0 -100 -64.5 -164.5t-164.5 -64.5q-73 0 -127.5 37.5t-78 88.5t-23.5 103q0 100 66 165
t163 65q100 0 164.5 -65t64.5 -165zM393 1049q0 41 -28.5 69.5t-69.5 28.5t-69.5 -28.5t-28.5 -69.5q0 -43 27.5 -71t70.5 -28q44 0 71 28t27 71zM825 229q0 41 -28.5 70t-69.5 29t-69.5 -29t-28.5 -70q0 -43 27.5 -70.5t70.5 -27.5q44 0 71 27.5t27 70.5z" />
    <glyph glyph-name="ampersand" unicode="&#x26;" horiz-adv-x="1368" 
d="M1286 1124q0 -288 -586 -309q-214 -9 -362.5 -88.5t-151.5 -191.5q0 -73 67.5 -178.5t158.5 -170.5q131 -94 293 -94q161 0 252.5 87.5t91.5 242.5q0 116 -81 197t-200 81q-93 0 -159 -66t-66 -159q0 -74 39 -120t102 -46q51 0 91 37t75 115q0 -115 -44 -170t-142 -55
q-97 0 -161.5 68t-64.5 171q0 120 108 212.5t249 92.5q92 0 178.5 -57t140 -150t53.5 -192q0 -169 -139.5 -282t-351.5 -113q-189 0 -341 92t-237.5 255.5t-85.5 366.5q0 144 53.5 278.5t141.5 233.5t208.5 158.5t248.5 59.5q156 0 256 -59.5t100 -151.5q0 -134 -170 -134
q-154 0 -213 105q41 -8 98 -8q127 0 127 49t-70 84t-167 35q-114 0 -222.5 -77t-175.5 -203.5t-67 -262.5q0 -75 12 -127q188 209 477 246q370 36 463.5 62t93.5 110q0 32 -9.5 42.5t-49.5 28.5q6 66 49 66q47 0 68.5 -26.5t21.5 -84.5z" />
    <glyph glyph-name="quotesingle" unicode="'" horiz-adv-x="372" 
d="M297 1233q0 -95 -41.5 -151t-110.5 -56q-23 0 -47 6q52 36 80 80q-45 28 -63 39t-40 28.5t-26.5 23t-11 21.5t-6.5 26v34q0 45 40.5 82t94.5 37q131 0 131 -170z" />
    <glyph glyph-name="parenleft" unicode="(" horiz-adv-x="446" 
d="M451 -346h-54q-164 213 -274.5 444.5t-110.5 350.5v264q0 122 93 351t212 390q0 -41 -43 -158q-76 -213 -108.5 -368t-32.5 -307q0 -228 70.5 -435t247.5 -532z" />
    <glyph glyph-name="parenright" unicode=")" horiz-adv-x="501" 
d="M440 561q0 -67 -66 -288t-149 -394q-105 -215 -194 -239q30 63 88.5 189.5t87.5 190.5q100 253 100 527q0 200 -42 369t-138 356q-74 152 -82 196q47 -28 145.5 -180t155.5 -289q94 -227 94 -438z" />
    <glyph glyph-name="asterisk" unicode="*" horiz-adv-x="796" 
d="M762 1210q0 -33 -19 -49q-76 13 -143 13q-141 0 -141 -31q0 -28 92 -94.5t133 -79.5q0 -41 -60 -91.5t-100 -50.5q-15 0 -24 9q-3 65 -25 130t-45.5 99.5t-34.5 34.5q-27 0 -65 -99t-41 -165q-9 -9 -23 -9q-47 0 -105.5 45.5t-58.5 81.5q0 7 4 15q43 14 133.5 80t90.5 94
q0 31 -140 31q-70 0 -143 -13q-16 13 -16 43q0 61 26.5 117.5t59.5 56.5q33 -43 115 -102t110 -59q25 0 25 24q0 36 -27.5 116t-58.5 136q12 39 116 39q101 0 113 -39q-31 -56 -58.5 -136t-27.5 -116q0 -24 25 -24q29 0 112.5 62t112.5 99q33 0 60.5 -53.5t27.5 -114.5z" />
    <glyph glyph-name="plus" unicode="+" horiz-adv-x="819" 
d="M756 379h-281v-279h-131v279h-278v131h278v281h131v-281h281v-131z" />
    <glyph glyph-name="comma" unicode="," horiz-adv-x="380" 
d="M297 86q0 -122 -117 -211h-92q51 39 61 53t11 52q-137 49 -137 145q0 58 39 101.5t92 43.5q143 0 143 -184z" />
    <glyph glyph-name="hyphen" unicode="-" horiz-adv-x="585" 
d="M492 791q0 -79 -41.5 -119.5t-112.5 -40.5q-59 26 -154 26q-76 0 -164 -18q27 139 144 139q196 -25 213 -28q19 0 115 41z" />
    <glyph glyph-name="period" unicode="." horiz-adv-x="354" 
d="M287 133q0 -54 -39.5 -93.5t-93.5 -39.5t-92.5 39t-38.5 94t37.5 93t93.5 38q133 0 133 -131z" />
    <glyph glyph-name="slash" unicode="/" horiz-adv-x="1015" 
d="M1022 1393l-870 -1508h-152l870 1508h152z" />
    <glyph glyph-name="zero" unicode="0" horiz-adv-x="976" 
d="M901 657q0 -188 -60.5 -340t-168 -238.5t-240.5 -86.5q-109 0 -206 81t-155.5 217.5t-58.5 289.5q0 134 43.5 275.5t100.5 188.5q-9 -46 -39 -296q0 -215 86 -416q114 -260 307 -260q121 0 204 125t83 305q0 196 -84 434q-110 309 -293 309q-42 0 -80.5 -28.5
t-38.5 -61.5q0 -55 78 -55h41v-64q-51 -51 -92 -51q-46 0 -75.5 38t-29.5 93q0 64 68 116t153 52q131 0 236.5 -84.5t163 -227.5t57.5 -315z" />
    <glyph glyph-name="one" unicode="1" horiz-adv-x="438" 
d="M346 57q0 -16 -48.5 -40.5t-82.5 -24.5q-32 0 -56 106t-24 250q0 105 16.5 230.5t75.5 435.5q-174 0 -194 10v59q44 13 51 13q98 0 127 63q36 73 123 82q0 -47 -7 -94t-34 -184q-39 -198 -39 -443q0 -136 21 -242.5t71 -220.5z" />
    <glyph glyph-name="two" unicode="2" horiz-adv-x="866" 
d="M772 197q-12 -54 -65 -191q-101 33 -156 42t-172 9q-77 0 -128 -6t-241 -39q45 133 120 227t362 390q122 149 122 311q0 128 -76 208.5t-200 80.5q-83 0 -154 -57.5t-71 -139.5q0 -57 30 -94t76 -37q28 0 46 10t46 41q25 -42 25 -49q-12 -12 -12 -14q0 -121 -117 -121
q-76 0 -124 61t-48 150q0 122 107 206.5t261 84.5q164 0 260.5 -92t96.5 -250q0 -164 -148 -324q-312 -271 -377 -338t-75 -129q49 14 612 60z" />
    <glyph glyph-name="three" unicode="3" horiz-adv-x="940" 
d="M872 473q0 -119 -77 -228.5t-206 -177t-270 -67.5q-137 0 -219 57.5t-82 153.5q0 51 33 85t84 34q60 0 82.5 -25t38.5 -100q-58 10 -76 10t-18 -8l2 -10q-38 0 -45.5 -5t-7.5 -34q0 -40 61.5 -79.5t122.5 -39.5q108 0 209 61t163 159.5t62 201.5q0 116 -84 196t-205 80
q-89 0 -131 -22q-52 -34 -114 -43q3 54 182 213q219 197 260 248h-342q-52 0 -79 -9t-93 -45q-18 0 -48 40.5t-30 64.5q0 27 97.5 53.5t191.5 26.5q61 0 315 -41q21 0 96 22q25 0 64 -22l-369 -381l13 -13q205 -54 259 -74.5t91 -60.5q69 -72 69 -221z" />
    <glyph glyph-name="four" unicode="4" horiz-adv-x="1116" 
d="M1081 608q0 -109 -71.5 -161t-231.5 -64q-121 -9 -133 -21q0 -84 72 -344q-86 -26 -166 -65q-24 123 -34 196.5t-28 247.5q-231 0 -512 -80q57 401 272 658t568 346q-71 -133 -131.5 -386t-60.5 -437q0 -39 77 -39q195 6 251.5 24t56.5 82q0 18 -12 27.5t-62 30.5
q24 49 35 60t39 11q23 0 47 -29t24 -57zM688 1219q-230 -120 -388.5 -323.5t-223.5 -461.5q120 55 272 58q137 3 154 20q22 320 186 707z" />
    <glyph glyph-name="five" unicode="5" horiz-adv-x="976" 
d="M891 600q0 -122 -46.5 -231.5t-125.5 -188.5t-188.5 -125.5t-231.5 -46.5q-276 0 -276 197q0 46 29.5 75t76.5 29q57 0 75.5 -20.5t20.5 -83.5q-72 -6 -91 -16.5t-19 -49.5q0 -26 56 -59t128 -33q127 0 233 64t167 175.5t61 245.5q0 157 -81 257t-210 100
q-58 0 -92 -11.5t-58 -34t-67 -79.5q-33 -44 -84 -47v553h354q46 -21 86 -21q74 0 74 82v43h78q65 -21 65 -92q0 -131 -262 -131q-173 0 -264 39h-80v-301l14 -27q141 99 148 99q44 18 168 18q160 0 251 -100.5t91 -278.5z" />
    <glyph glyph-name="six" unicode="6" horiz-adv-x="950" 
d="M862 424q0 -184 -108.5 -309t-286.5 -125q-229 0 -354 239q-95 179 -95 379q0 154 85.5 308.5t218 252t262.5 97.5q76 0 137 -44t61 -100q0 -60 -34.5 -83t-122.5 -23l-7 26q41 78 48 80q0 32 -44 62t-90 30q-103 0 -190.5 -79t-138.5 -215.5t-51 -296.5
q0 -150 42 -273.5t130 -201.5t208 -78q109 0 186 97t77 232q0 126 -80.5 213.5t-194.5 87.5q-74 0 -107 -24t-85 -107q-99 47 -99 93q0 57 83.5 107t181.5 50q33 0 65 -4.5t69.5 -16t70 -30t63 -49.5t52.5 -71t35 -97.5t13 -126.5z" />
    <glyph glyph-name="seven" unicode="7" horiz-adv-x="874" 
d="M809 1270q-291 -365 -391.5 -547.5t-100.5 -364.5q0 -112 82 -249q-12 -8 -145 -107q-94 119 -94 291q0 197 151 436q82 110 299 408h-356q-66 0 -100 -8t-125 -44v78q0 21 0.5 33t4 25t7.5 19t16 13.5t23.5 10.5t35.5 7t47.5 6t63.5 5l357 -39q102 20 131 23.5t94 3.5z
" />
    <glyph glyph-name="eight" unicode="8" horiz-adv-x="931" 
d="M860 387q0 -163 -127 -272t-319 -109q-169 0 -276 98.5t-107 253.5q0 142 92 228q8 6 68 47t90 63q-46 38 -138 86q-76 40 -101.5 84t-25.5 140q0 141 106.5 203.5t358.5 70.5q254 9 301 20q-85 -137 -184 -137h-330q-47 0 -109.5 -53t-62.5 -117q0 -160 318 -225
q61 0 128.5 66.5t67.5 132.5q0 21 -26 98q21 6 65 6q32 0 55 -27t23 -65q0 -33 -11.5 -54.5t-43.5 -52.5t-129 -116q15 -21 108 -68q113 -57 161 -126t48 -175zM702 334q0 150 -131 244q-100 71 -172 71q-86 0 -175 -95.5t-89 -195.5q0 -121 84 -203.5t207 -82.5
q96 0 186 81.5t90 180.5z" />
    <glyph glyph-name="nine" unicode="9" horiz-adv-x="968" 
d="M891 649q0 -162 -61 -319.5t-160 -274t-232 -188.5t-270 -72q-170 0 -170 107q0 26 39 65h78q0 -79 18.5 -100t87.5 -21q144 0 265.5 97t191.5 264t70 364q0 166 -49.5 309t-134.5 226.5t-185 83.5q-45 0 -90.5 -21.5t-85 -61t-64 -104.5t-24.5 -143q0 -92 37.5 -174
t101.5 -132t137 -50q47 0 89 38.5t42 82.5q-6 55 -6 77q30 5 37 5q100 0 100 -136q0 -78 -72 -131t-178 -53q-153 0 -252.5 122t-99.5 312q0 191 106 312.5t273 121.5q133 0 238.5 -77t164 -215t58.5 -314z" />
    <glyph glyph-name="colon" unicode=":" horiz-adv-x="372" 
d="M297 614q0 -44 -43.5 -81t-99.5 -37q-119 0 -119 131t131 131q56 0 93.5 -45t37.5 -99zM285 102q0 -116 -131 -116q-60 0 -95.5 36t-35.5 93q0 46 44 83.5t99 37.5q119 0 119 -134z" />
    <glyph glyph-name="semicolon" unicode=";" horiz-adv-x="372" 
d="M272 633q0 -56 -41 -93.5t-102 -37.5q-56 0 -87.5 38t-31.5 93q0 53 38.5 92t92.5 39q53 0 92 -38.5t39 -92.5zM285 109q0 -136 -131 -224h-80q37 32 80 92q-43 23 -60.5 32.5t-38.5 24t-26.5 20.5t-12 20.5t-6.5 25v33.5q0 60 38.5 103t92.5 43t99 -52.5t45 -117.5z" />
    <glyph glyph-name="less" unicode="&#x3c;" horiz-adv-x="786" 
d="M721 70l-655 342l655 338v-134l-402 -206l402 -207v-133z" />
    <glyph glyph-name="equal" unicode="=" horiz-adv-x="819" 
d="M756 516h-690v131h690v-131zM756 274h-690v132h690v-132z" />
    <glyph glyph-name="greater" unicode="&#x3e;" horiz-adv-x="786" 
d="M721 412l-655 -342v133l401 207l-401 206v134z" />
    <glyph glyph-name="question" unicode="?" horiz-adv-x="931" 
d="M852 1075q0 -179 -119 -301q-228 -181 -274 -227q-53 -52 -60 -97q-2 -16 -2 -40q0 -62 52 -156q-74 -53 -117 -53q-28 0 -47 57t-19 125q0 123 121 244q61 54 227 192q121 121 121 256q0 114 -89 188t-224 74q-67 0 -133 -27t-113 -68t-76.5 -89.5t-29.5 -89.5
q0 -37 43 -74t88 -37q71 0 71 70q0 32 -16 82h41q100 0 100 -92q0 -57 -56 -94t-140 -37q-67 0 -126 58t-59 124q0 135 133.5 224t337.5 89q172 0 268.5 -80t96.5 -221zM526 -164q0 -50 -40 -90.5t-89 -40.5q-54 0 -92.5 37.5t-38.5 93.5q0 52 39 91.5t92 39.5
q49 0 89 -40.5t40 -90.5z" />
    <glyph glyph-name="at" unicode="@" horiz-adv-x="1474" 
d="M1409 639q0 -138 -52.5 -262.5t-142.5 -214.5t-214.5 -142.5t-262.5 -52.5t-262.5 52.5t-214 142.5t-142 214.5t-52.5 262.5t52.5 262.5t142 214.5t214 142.5t262.5 52.5t262.5 -52.5t214.5 -142.5t142.5 -214.5t52.5 -262.5zM1278 639q0 152 -71 276t-195 194.5
t-275 70.5q-231 0 -385.5 -155t-154.5 -386q0 -152 70.5 -276t194.5 -194.5t275 -70.5q240 0 389 162h-131v76q-121 -109 -278 -109q-170 0 -290 120t-120 290q0 172 119 291t291 119q157 0 278 -109v33h131v-635h60q92 139 92 303zM995 637q0 115 -81.5 196.5t-196.5 81.5
q-116 0 -197.5 -81.5t-81.5 -196.5t82 -197t197 -82t196.5 81.5t81.5 197.5z" />
    <glyph glyph-name="A" unicode="A" horiz-adv-x="1386" 
d="M1321 0h-266q43 97 52 123t9 59q0 127 -73.5 268t-197.5 258t-265 175q-158 -249 -158 -629q0 -72 7 -119.5t32 -100.5t55 -96t94 -126q-99 -62 -215 -127q0 215 -28 358q-27 138 -27 250q0 297 135 608q-72 10 -106 10q-118 0 -187 -35.5t-69 -97.5q0 -13 21 -34t32 -21
q20 17 51 53q25 -36 25 -67q0 -44 -37.5 -75.5t-91.5 -31.5q-43 0 -82 44t-39 93q0 117 102 185.5t271 68.5q89 0 157 -14q286 403 787 403q-52 -85 -52 -161v-1074q0 -24 9 -44t55 -103zM1108 580v667q-15 27 -53 27q-97 0 -221 -89.5t-224 -226.5q121 -37 206 -102.5
t292 -275.5z" />
    <glyph glyph-name="B" unicode="B" horiz-adv-x="1275" 
d="M1214 434q0 -124 -83 -268.5t-207 -231.5q-183 -131 -447 -131q-204 0 -325 88.5t-121 239.5q0 83 38 140t105 57q32 0 56 -27.5t24 -62.5q0 -33 -53 -80q-39 39 -51 39q-56 0 -56 -93q0 -92 104 -163.5t240 -71.5q165 0 304 79.5t219.5 215.5t80.5 297q0 90 -40 170.5
t-99 101.5q-103 -89 -136.5 -108t-92.5 -19q-105 0 -105 90q0 34 5 52t16.5 34t43.5 26t72.5 18.5t116.5 19.5q88 34 88 153q0 136 -109 227t-272 91q-97 0 -195.5 -38.5t-162 -100.5t-63.5 -125q0 -18 14.5 -29t77.5 -41q-6 -46 -20.5 -60t-57.5 -14q-107 0 -107 117
q0 68 44 135t117 118.5t176.5 83.5t215.5 32q218 0 360 -104.5t142 -264.5q0 -63 -14 -99t-76 -116l129 -92q104 -104 104 -285zM543 0h-289q55 66 67.5 90.5t12.5 67.5v790q-13 26 -80 105q81 75 264 166q-36 -149 -45.5 -197.5t-9.5 -87.5v-830q20 -34 80 -104zM793 764
q-23 10 -48 10q-39 0 -69.5 -17.5t-30.5 -39.5q0 -31 39 -31q31 0 70 24t39 54z" />
    <glyph glyph-name="C" unicode="C" horiz-adv-x="1284" 
d="M1262 1323q0 -19 -14 -32t-58 -40q-23 83 -42 104t-71 21q-53 0 -92 -51t-39 -121q0 -48 41 -119q-39 -23 -76 -38q-38 141 -112.5 201.5t-208.5 60.5q-187 0 -310.5 -161.5t-123.5 -404.5q0 -184 72 -341t196.5 -249t271.5 -92q64 0 181 60q137 69 137 162q-3 47 -96 65
q15 80 81 80q78 0 78 -119q0 -135 -131 -232t-315 -97q-168 0 -311 95.5t-226.5 259.5t-83.5 357q0 142 47 269t127.5 218t193.5 144t240 53q76 0 156 -47q80 -45 107 -45q17 0 37 45q37 65 84 95t114 30q55 0 100.5 -39.5t45.5 -91.5z" />
    <glyph glyph-name="D" unicode="D" horiz-adv-x="1331" 
d="M1257 750q0 -511 -589 -687q-68 -18 -267 -63h-131q52 48 65 155t13 443q-100 24 -162 50t-103.5 65t-58 92t-16.5 131q0 96 37.5 180t108 149.5t182 103.5t250.5 38q141 0 265.5 -50.5t213.5 -137.5t140.5 -209t51.5 -260zM1085 764q0 260 -142 419.5t-370 159.5
q-140 0 -258.5 -51t-187 -139t-68.5 -192q0 -125 81.5 -212t176.5 -87h29q0 226 -5.5 297t-29.5 106q0 26 48 52.5t122 41.5q-32 -54 -32 -221q0 -113 16 -260q96 15 169 70.5t73 113.5q0 41 -31 47h-76q27 105 90 105q113 0 113 -146q0 -191 -348 -286l6 -396q-3 0 -21 -92
q311 44 476.5 217.5t168.5 452.5z" />
    <glyph glyph-name="E" unicode="E" horiz-adv-x="1294" 
d="M1260 1151q0 -195 -277 -287q-383 -92 -512 -125q-276 -77 -276 -233q0 -64 49 -141t121.5 -140t161.5 -106t163 -43q51 0 148 26.5t135 53.5q78 60 90 206q44 -26 53 -41t12 -63q0 -69 -63 -133.5t-167 -104.5t-216 -40q-291 0 -474 198t-183 512q0 152 49.5 286.5
t135 231t204.5 152t254 55.5q142 0 229.5 -53.5t87.5 -142.5q0 -60 -26 -83.5t-93 -23.5h-65q39 91 39 107q0 47 -69 81.5t-155 34.5q-194 0 -321.5 -144t-149.5 -392q0 -59 13 -148q42 30 119 86.5t104 75.5q135 81 407 127q394 27 394 172q0 39 -33 59t-33 33q0 53 66 53
q31 0 54.5 -31.5t23.5 -74.5z" />
    <glyph glyph-name="F" unicode="F" horiz-adv-x="1163" 
d="M1122 1423q0 -73 -83.5 -128.5t-192.5 -55.5q-38 0 -156 31q-109 33 -194 33q-54 0 -117 -13v-348q70 -6 108.5 -12t196.5 -35q54 0 100.5 28.5t46.5 65.5q0 11 -7.5 20t-43.5 40q12 18 66 18q57 0 57 -25q0 -99 -85.5 -175t-217.5 -76q-74 0 -221 26v-696q0 -4 84 -121
h-301q45 63 55 81t10 40v706q-51 -6 -73.5 -11t-43.5 -21.5t-30 -43t-19 -77.5l-26 24q8 8 8 60q0 62 14.5 94t51 53.5t118.5 48.5q0 264 -6 285q-82 -15 -117 -59q-52 -64 -88 -86v80q194 237 514 237q49 0 122.5 -14t324.5 -68q22 0 58 26.5t36 41.5q0 10 -8 19.5
t-47 45.5q0 24 55 51q51 0 51 -90z" />
    <glyph glyph-name="G" unicode="G" horiz-adv-x="1228" 
d="M1155 1376q0 -133 -199 -133q-57 0 -172 33t-178 33q-193 0 -322.5 -158.5t-129.5 -394.5q0 -141 51.5 -271.5t137 -225.5t203.5 -151.5t245 -56.5q87 0 165 35q-53 121 -53 262v369q-55 14 -80 14q-31 -14 -51 -14q-57 0 -113 33q-54 32 -98 32q-65 0 -65 -53
q0 -41 49 -41h43v-63h-107q-25 24 -30.5 36.5t-8.5 55.5q0 64 50.5 110.5t121.5 46.5q44 0 129 -32q90 -33 187 -33q143 14 170 14q-51 -87 -51 -118v-265q0 -165 65 -354q-124 -67 -199 -86.5t-208 -19.5q-199 0 -357.5 92.5t-248.5 258.5t-93 376q0 123 50.5 242.5
t133 209.5t194.5 145.5t228 55.5l316 -64q92 0 92 52q0 17 -16 36q-25 28 -35 58q40 24 78 39q27 0 66.5 -40t39.5 -65z" />
    <glyph glyph-name="H" unicode="H" horiz-adv-x="1384" 
d="M1325 0h-285q12 34 43 70q23 26 23 61v827q-193 -34 -221 -34q-178 0 -262 34q-126 51 -162 56v-885q0 -17 9.5 -33t68.5 -96h-287q46 68 56.5 88.5t10.5 34.5q0 881 -2 881q-89 0 -137.5 -28t-48.5 -99q0 -39 15.5 -56t62.5 -35q-26 -44 -39.5 -54.5t-52.5 -10.5
q-40 0 -74.5 39.5t-34.5 83.5t30.5 104.5t76.5 89.5q52 32 200 60q0 109 -13 163t-54 117h262q-47 -71 -53 -141l2 -147q214 -66 271 -80.5t122 -14.5q193 0 248 58v116q0 84 -8 110.5t-56 100.5h277q-48 -62 -57 -76.5t-9 -29.5v-1155q76 -114 78 -119z" />
    <glyph glyph-name="I" unicode="I" horiz-adv-x="399" 
d="M311 0h-288q69 107 69 119v1145q0 9 -69 112h262q-47 -66 -56.5 -83.5t-9.5 -37.5v-1118q18 -22 92 -137z" />
    <glyph glyph-name="J" unicode="J" horiz-adv-x="428" 
d="M317 201q-61 -31 -131 -156q-39 -66 -60.5 -100.5t-49 -74t-45.5 -57.5t-42 -35t-47 -22.5t-53 -5.5q-40 2 -72 30t-32 62q0 22 20 44t45 22q22 0 32.5 -14.5t33.5 -77.5q205 58 205 737q0 454 -8 670q-3 43 -90 155h294q-40 -52 -49.5 -67.5t-9.5 -32.5v-897
q0 -72 10.5 -104t48.5 -76z" />
    <glyph glyph-name="K" unicode="K" horiz-adv-x="1275" 
d="M1210 -115q0 -42 -16 -55.5t-66 -13.5q-200 0 -323 272q-50 114 -148 502q-61 252 -129 252q-36 0 -138 -56.5t-157 -113.5v-396q1 -107 15.5 -144t89.5 -132h-328q54 54 67 73t23 62v1024q0 123 -77 223h274q-48 -69 -58 -93t-10 -79v-424q73 62 252 150
q224 109 303.5 170t79.5 131q0 46 -24 64t-107 42q35 105 131 105q66 0 106 -54t40 -145q0 -64 -16.5 -109t-62.5 -88t-113.5 -80t-184.5 -89q137 -110 196 -348q13 -65 38.5 -197t39.5 -197q58 -207 209 -278q0 80 41 80q32 0 42.5 -12.5t10.5 -45.5z" />
    <glyph glyph-name="L" unicode="L" horiz-adv-x="1126" 
d="M1059 322q0 -155 -101 -248.5t-266 -93.5q-51 0 -192 36q-142 37 -221 37q-107 0 -166 -59h-2q-15 0 -109 94q143 143 143 234v886q0 30 -15 55.5t-81 110.5l309 2q-67 -76 -67 -151v-891q-12 -65 -29.5 -115.5t-32.5 -62.5q88 12 154 12q84 0 176 -27q151 -41 223 -47
q73 0 140 77t67 151q0 99 -60 162t-161 67q-115 0 -115 -98q0 -35 25 -48.5t76 -13.5q-6 -51 -26.5 -67.5t-74.5 -16.5t-92.5 50.5t-38.5 121.5q0 63 68.5 117.5t167.5 54.5q126 0 213.5 -95t87.5 -234z" />
    <glyph glyph-name="M" unicode="M" horiz-adv-x="1452" 
d="M1384 0h-280q28 44 34 61t9 66l-148 1016q-27 -22 -149.5 -151t-122.5 -144q84 -150 102.5 -195.5t18.5 -105.5q0 -103 -55 -169.5t-142 -66.5q-75 0 -129.5 69.5t-54.5 166.5q0 30 23 99.5t57 129.5q-75 83 -141 171t-91 138l-108 -981q3 -54 39 -104h-236
q54 36 79.5 206t105.5 1006q0 34 -9.5 49t-62.5 58q31 0 297 8q-70 -58 -70 -88q0 -20 307 -336q234 233 277 278t43 58q0 20 -66 92h301q-50 -47 -59.5 -59.5t-9.5 -26.5q0 -1 4 -33q98 -818 126 -975q27 -156 62 -199q14 -17 49 -38zM717 508q0 62 -15.5 92t-76.5 92
q-54 -46 -67 -69t-13 -76q0 -64 26.5 -104t67.5 -40q29 0 53.5 34t24.5 71z" />
    <glyph glyph-name="N" unicode="N" horiz-adv-x="1191" 
d="M1130 0h-235q20 28 33.5 77.5t13.5 96.5q0 139 -16 215q-78 -126 -181 -129q-58 0 -97.5 37.5t-39.5 93.5q0 49 24 82t58 33q29 0 51 -25l-28 -82q0 -34 67 -37q33 -1 61.5 41t28.5 86q0 102 -131 189q-97 57 -141 83.5t-103 62t-82.5 53t-55 41t-45.5 41t-29.5 38
t-30.5 47.5l-62 -901q1 -28 14.5 -51t63.5 -92h-262q70 40 96 143l58 779q14 212 16 319q0 19 -11.5 41t-51.5 76h247q-60 -58 -70.5 -73.5t-10.5 -43.5q0 -108 143 -203q196 -110 279.5 -160.5t124.5 -84.5t69 -76l-47 530q-7 21 -82 111h248q-43 -52 -54.5 -71t-11.5 -40
q0 -47 99 -1145q6 -26 19 -42t64 -60z" />
    <glyph glyph-name="O" unicode="O" horiz-adv-x="1210" 
d="M1139 696q0 -202 -74 -366t-205.5 -257t-294.5 -93q-113 0 -214 50.5t-175 138.5t-117 215t-43 273q0 131 42 262.5t113 224.5t151 113q-175 -217 -175 -495q0 -173 69 -327t184.5 -246.5t244.5 -92.5q164 0 270.5 142.5t106.5 365.5q0 175 -62.5 336t-165.5 258.5
t-214 97.5q-119 0 -119 -102q0 -19 23 -42.5t42 -23.5q46 19 66 25q0 -86 -23.5 -114.5t-81.5 -28.5t-94.5 49.5t-36.5 120.5q0 85 78 147t184 62q145 0 264 -89.5t188 -248.5t69 -355z" />
    <glyph glyph-name="P" unicode="P" horiz-adv-x="1210" 
d="M1114 885q0 -125 -48 -250.5t-123.5 -218.5t-172.5 -151t-190 -58q-75 0 -129 50t-54 120q0 94 95 94q14 0 34 -4q-26 -47 -32.5 -62t-6.5 -28q0 -34 41.5 -63t102.5 -29q63 0 122 44t104 120t72 186.5t27 234.5q0 79 -20.5 159.5t-58.5 151.5t-102.5 115.5t-143.5 44.5
q-69 0 -139 -39t-115 -100.5t-45 -122.5v-1108q0 -98 -73.5 -179t-162.5 -81q-55 0 -90 53v64h105q51 0 64 16.5t13 63.5v1263q-123 0 -165.5 16t-42.5 62q0 33 15 45t68 21q16 -73 21 -76h66q53 0 208 76q159 78 312 78q90 0 169.5 -33t141 -95t97.5 -160t36 -220z" />
    <glyph glyph-name="Q" unicode="Q" horiz-adv-x="1239" 
d="M1260 -156q0 -44 -43 -75t-103 -31q-194 0 -366 252l-189 -13q-209 0 -209 170q-30 -20 -33 -41q-122 61 -208 240t-86 369q0 188 73.5 340.5t206.5 240.5t299 88q255 -3 404 -176.5t149 -464.5q0 -283 -119 -460q-166 -197 -170 -203q105 -150 161.5 -211.5t94.5 -61.5
q12 0 24.5 17.5t12.5 34.5q0 34 -37 61q40 19 64 19q74 0 74 -95zM1010 674q0 164 -66 315t-169.5 240.5t-211.5 89.5q-174 0 -278.5 -141t-104.5 -373q0 -147 36.5 -264t148.5 -353q131 64 161 64q138 0 260 -78q60 0 142 172q82 174 82 328zM696 88q-70 88 -174 88
q-40 0 -58.5 -15t-21.5 -50q0 -64 113 -64q88 0 141 41z" />
    <glyph glyph-name="R" unicode="R" horiz-adv-x="1275" 
d="M1245 -252q-172 0 -273 94t-157 303q-61 229 -67 244l-121 -10q-146 0 -146 94q0 40 41.5 67t102.5 27q41 0 100 -35q54 -32 84 -32q28 0 67 33t74 83.5t59.5 119.5t24.5 132q0 193 -132.5 321t-340.5 128q-118 0 -291 -66q-211 -82 -211 -198q0 -60 66 -60q36 0 57 21
q0 -105 -69 -105q-41 0 -73 33.5t-32 83.5q0 94 81.5 176t221 131t301.5 49q255 0 410.5 -133.5t155.5 -353.5q0 -69 -14 -124.5t-36 -98.5t-67.5 -89.5t-89.5 -82t-121 -92.5q63 -94 127 -271q71 -194 124.5 -260.5t143.5 -66.5q51 0 51 86q39 -6 52.5 -19t13.5 -41
q0 -42 -37 -65t-80 -23zM496 0h-291q65 65 65 104v871q0 18 -8.5 32.5t-46.5 61.5l234 162q-33 -98 -33 -137v-990q0 -19 12 -34.5t68 -69.5zM707 459q-57 51 -99 51q-49 0 -49 -47q0 -31 59 -31t89 27z" />
    <glyph glyph-name="S" unicode="S" horiz-adv-x="1155" 
d="M1090 494q0 -45 -6 -89.5t-23 -96.5t-43.5 -97.5t-71 -88.5t-102 -74t-140.5 -49.5t-182 -18.5q-232 0 -372 107.5t-140 287.5q0 130 115 222.5t278 92.5q138 0 234 -65.5t96 -169.5q0 -91 -64 -145t-171 -54q-77 0 -138 36.5t-61 82.5q0 77 98 104q24 -133 101 -133
q49 0 88 37.5t39 83.5q0 73 -71 122.5t-175 49.5q-126 0 -215.5 -81t-89.5 -198q0 -80 43.5 -144.5t113 -103t149 -59t157.5 -20.5q120 0 223 53t163 144t60 198q0 175 -195 311q-61 34 -180 100.5t-180 100.5q-195 115 -195 238q0 91 101 158t241 67q128 0 209.5 -45
t81.5 -115q0 -28 -30 -46.5t-76 -18.5q-12 0 -12 16q0 8 6 61q0 107 -191 107q-91 0 -158 -38.5t-67 -92.5q0 -85 194 -180q173 -84 273 -142.5t168 -124t92.5 -131.5t24.5 -159z" />
    <glyph glyph-name="T" unicode="T" horiz-adv-x="1136" 
d="M1124 1434q-2 -82 -108.5 -137.5t-261.5 -55.5q-50 0 -103 6v-1143q0 -17 8.5 -30.5t57.5 -73.5h-289q48 67 61 90t13 41l-4 1135q-89 22 -131.5 28t-110.5 6t-119 -27.5t-51 -64.5q0 -20 20.5 -28.5t71.5 -8.5q-1 -30 -26.5 -55.5t-53.5 -25.5q-78 0 -78 106
q0 67 67 116.5t160.5 72t192.5 22.5q125 0 283 -35q149 -33 205 -33q104 0 104 68q0 31 -47 49q0 53 39 53q37 0 68.5 -20t31.5 -55z" />
    <glyph glyph-name="U" unicode="U" horiz-adv-x="1210" 
d="M1184 98q-34 -104 -129 -104q-42 0 -68 25t-98 131q-177 -117 -235 -143.5t-152 -26.5q-136 0 -248.5 77.5t-177 214t-64.5 301.5q0 145 54.5 267.5t185.5 275.5q108 121 129 166h-49q-40 0 -73 8t-140 45q-13 0 -27 -14.5t-14 -28.5q0 -18 22 -18q21 0 45 8q9 -27 9 -47
q0 -24 -15 -38.5t-39 -14.5q-61 0 -61 88q0 58 51.5 100.5t120.5 42.5q184 -47 197 -47q24 0 67 16q32 11 109 11q-9 -27 -125 -158q-161 -184 -231 -329t-70 -294q0 -141 56 -259.5t153 -186.5t213 -68q38 0 113.5 33t138.5 81t63 83v711q0 141 -6.5 208t-20.5 100t-51 81
q52 8 277 8q-44 -44 -55 -76.5t-11 -122.5v-870q0 -121 38 -178.5t118 -57.5z" />
    <glyph glyph-name="V" unicode="V" horiz-adv-x="1163" 
d="M844 633q-296 -508 -357 -670q-104 181 -160.5 368.5t-166.5 692.5q-58 265 -119 360h262q-65 -74 -65 -118q179 -870 284 -987q319 532 388 670t69 251q0 105 -50 177.5t-138 72.5q-47 0 -83 -26.5t-36 -65.5q0 -53 41 -53q26 0 59 20q25 -28 25 -57q0 -28 -25 -48
t-59 -20q-107 0 -107 131q0 59 36.5 102.5t86 63t100.5 19.5q63 0 136 -48q125 -82 125 -270q0 -72 -58.5 -206.5t-187.5 -358.5z" />
    <glyph glyph-name="W" unicode="W" horiz-adv-x="1536" 
d="M1479 1145q0 -195 -179 -586l-276 -571l-307 651l-324 -666q-269 745 -323.5 913.5t-61.5 293.5q0 101 52.5 172t134.5 71q44 1 54.5 -8.5t10.5 -50.5q-78 0 -110.5 -35t-32.5 -131q0 -98 135.5 -458t198.5 -423q81 125 217 451q-65 227 -77.5 279.5t-12.5 97.5
q0 91 50.5 157t119.5 66q159 0 159 -197q0 -61 -15 -113t-79 -229l252 -553q182 410 235.5 559t53.5 279q0 203 -133 203q-30 0 -45.5 -10t-59.5 -56q-41 62 -41 70q0 52 44 83.5t116 31.5q102 0 173 -84.5t71 -206.5zM813 1145q0 137 -55 137q-72 0 -72 -96
q0 -59 20.5 -133.5t43.5 -106.5q63 97 63 199z" />
    <glyph glyph-name="X" unicode="X" horiz-adv-x="1144" 
d="M1126 0h-317q29 23 29 49t-25 51q-124 166 -328 514q-118 -87 -205 -231t-87 -258q0 -33 7 -49t46 -76h-236q77 145 99 231q32 113 99 208.5t241 277.5q-168 316 -230 545q-2 4 -4 7l-4 6t-5.5 8t-6.5 8.5t-10 11.5t-12.5 14t-16.5 19t-21 24h277q-28 -69 -33.5 -86
t-5.5 -33q0 -36 85.5 -227t110.5 -191q169 137 236 198t94 103.5t27 92.5q0 38 -27 64t-67 26q-41 0 -59.5 -11t-37.5 -45q-20 47 -20 82q0 42 35.5 74.5t119.5 32.5q173 0 173 -199q0 -70 -70 -158t-252 -245q-113 -94 -113 -121q0 -18 48 -107t118.5 -202t167.5 -230.5
t180 -177.5z" />
    <glyph glyph-name="Y" unicode="Y" horiz-adv-x="1107" 
d="M1042 1397q0 -304 -39.5 -634.5t-105.5 -584.5q-59 -221 -166.5 -354t-228.5 -133q-65 0 -111.5 45.5t-46.5 111.5q0 33 16 33q77 -40 96.5 -48.5t32.5 -8.5q116 0 230 170q106 155 106 303q-145 -83 -191 -101t-118 -18q-105 0 -190 67t-132 182t-47 253q0 113 26 197
t132 335q-86 11 -108 11q-62 -4 -64 -4q-30 28 -35 28q-18 0 -30 -69q38 -15 65 -39q-39 -39 -65 -39q-15 0 -34.5 28t-19.5 50q0 21 4 38.5t14.5 31.5t21 24.5t31 18.5t37 13.5t47 9t52 5.5t61 3t66 1h74.5q-86 -182 -114.5 -286.5t-28.5 -239.5q0 -222 86.5 -347.5
t240.5 -125.5q152 0 248 172t96 446q0 86 -21.5 160.5t-90.5 247.5q129 34 204 47z" />
    <glyph glyph-name="Z" unicode="Z" horiz-adv-x="1181" 
d="M1110 254q0 -108 -101.5 -191t-228.5 -83q-68 0 -248 63q-189 66 -239 66q-94 0 -158 -64t-125 -70q-8 11 -8 43q0 123 105.5 309.5t261.5 321.5q228 181 322.5 262.5t143.5 140t91 142.5q-70 -6 -135 -6q-168 0 -314 51q-125 41 -164 41q-69 0 -129.5 -49.5
t-60.5 -120.5q0 -102 94 -102q20 0 41 16.5t21 40.5q0 35 -50 65q15 44 66 44q104 0 104 -117q0 -54 -46.5 -92.5t-112.5 -38.5q-64 0 -117 58t-53 126q0 99 95 189t204 90q75 0 237 -54q113 -39 187 -39q112 0 249 84q0 -70 -10.5 -127t-37.5 -113.5t-63.5 -106.5
t-99 -111.5t-133 -120.5t-176.5 -142q-208 -162 -293 -268.5t-94 -214.5q23 0 90 31q62 33 160 33q125 0 283 -82q163 -82 190 -82q68 0 113 36t45 91q0 50 -33 83t-84 33q-6 0 -119 -53q-12 46 -12 76q0 50 37.5 79.5t105.5 29.5q83 0 141 -57.5t58 -139.5z" />
    <glyph glyph-name="bracketleft" unicode="[" horiz-adv-x="557" 
d="M494 -131h-428v1655h428v-131h-297v-1393h297v-131z" />
    <glyph glyph-name="backslash" unicode="\" horiz-adv-x="1015" 
d="M1022 -115h-152l-870 1508h152z" />
    <glyph glyph-name="bracketright" unicode="]" horiz-adv-x="557" 
d="M494 -131h-428v131h296v1393h-296v131h428v-1655z" />
    <glyph glyph-name="asciicircum" unicode="^" horiz-adv-x="540" 
d="M473 1126h-131l-68 134l-69 -134h-131l135 265h127z" />
    <glyph glyph-name="underscore" unicode="_" horiz-adv-x="819" 
d="M819 -457h-819v131h819v-131z" />
    <glyph glyph-name="grave" unicode="`" horiz-adv-x="681" 
d="M481 1051l-61 -54q-125 93 -309 193q74 74 108 74q31 0 134.5 -87t127.5 -126z" />
    <glyph glyph-name="a" unicode="a" 
d="M858 0h-145q-17 11 -22.5 26t-28.5 99q-95 -145 -289 -145q-164 0 -265.5 93.5t-101.5 245.5q0 87 58 165.5t158.5 126.5t215.5 48q56 0 158 -24q-31 109 -136 199t-204 90q-63 0 -104 -33.5t-41 -85.5q0 -64 36 -64q26 0 35 15t19 63h55q14 -20 14 -59q0 -113 -96 -113
q-54 0 -98.5 46t-44.5 100q0 73 83.5 128.5t192.5 55.5q189 0 308 -137.5t182 -427.5q13 -65 61 -412zM674 332q0 102 -72 169.5t-178 67.5q-63 0 -111 -16t-76 -40t-45.5 -57t-23.5 -63t-6 -61q0 -88 78 -161t172 -73t178 73t84 161z" />
    <glyph glyph-name="b" unicode="b" horiz-adv-x="968" 
d="M874 502q0 -127 -62 -249t-159 -197.5t-196 -75.5q-131 0 -254 120q0 -30 -16.5 -53t-75.5 -76q-75 89 -99 123q58 25 74 41.5t16 52.5v902q0 40 -14.5 50.5t-77.5 16.5q57 63 189 219v-628q173 176 336 176q166 0 252.5 -107.5t86.5 -314.5zM768 489q0 163 -73.5 259
t-198.5 96q-98 0 -195.5 -76.5t-97.5 -146.5v-455q46 -46 121.5 -89.5t117.5 -43.5q144 0 235 129t91 327z" />
    <glyph glyph-name="c" unicode="c" 
d="M858 240q-56 -119 -167 -191t-240 -72q-211 25 -323 149.5t-112 336.5q0 131 68 250.5t181 191.5t237 72q116 0 203.5 -71.5t87.5 -166.5q0 -91 -56 -143.5t-153 -52.5q-75 0 -117.5 38t-42.5 105q0 51 10.5 65t67.5 42q26 -88 26 -97q21 -34 80 -34q34 0 63 30t29 74
q0 63 -54.5 110.5t-129.5 47.5q-99 0 -190.5 -56t-147 -147.5t-55.5 -190.5q0 -83 32.5 -163t85.5 -139.5t125.5 -95.5t149.5 -36q83 0 186 62q117 72 156 82z" />
    <glyph glyph-name="d" unicode="d" horiz-adv-x="987" 
d="M932 84q0 -22 -33 -50t-74 -28q-39 0 -104 117q-29 -10 -74 -49q-63 -55 -110 -74.5t-119 -19.5q-169 0 -282 141t-113 358q0 202 123.5 337.5t310.5 135.5q54 0 125 -32q76 -30 112 -33v291q-25 15 -36 16.5t-48 -4.5h4q110 143 211 223v-921q0 -104 4 -164.5t20 -106
t30.5 -68t52.5 -69.5zM694 295v381q-54 123 -106 167t-146 44q-126 0 -207 -100.5t-81 -254.5q0 -187 95.5 -311.5t219.5 -124.5q74 0 149.5 66t75.5 133z" />
    <glyph glyph-name="e" unicode="e" horiz-adv-x="931" 
d="M870 231q-29 -112 -142 -181.5t-265 -69.5q-62 0 -98 10t-140 55q-65 -56 -65 -104q0 -38 26 -52q27 -15 27 -41v-53q-131 3 -131 107q0 27 11 54.5t67 141.5q-54 75 -74.5 106t-41.5 76.5t-25.5 84t-4.5 102.5q0 205 134 346t329 141q134 0 301 -92l-461 -686
q81 -78 226 -78q85 0 139.5 22.5t187.5 110.5zM582 770q0 49 -52 84t-120 35q-69 0 -136.5 -51t-110 -134.5t-42.5 -171.5q0 -76 34.5 -155.5t90.5 -132.5q89 89 212.5 287t123.5 239z" />
    <glyph glyph-name="f" unicode="f" horiz-adv-x="591" 
d="M543 1255q0 -37 -35 -70.5t-70 -33.5q-29 0 -59.5 25.5t-30.5 50.5q0 43 29 43q44 -19 53 -19t21 4q4 20 4 29q0 51 -70 51q-57 0 -72.5 -48.5t-17.5 -203.5q0 -57 2 -86.5t5.5 -51.5t15.5 -29.5t24.5 -10t40.5 -2.5q95 0 113 -84q-52 8 -109 8q-74 0 -80 -20v-801
q0 -186 -81.5 -311.5t-209.5 -136.5v118q59 40 87.5 63t50.5 53.5t28 62.5t6 84v880h-90q-85 0 -106 84q58 -6 96 -6h37t23.5 7t16 13t8 28.5t4.5 44t1 67.5q3 169 57.5 243t176.5 74q54 0 92.5 -35t38.5 -84z" />
    <glyph glyph-name="g" unicode="g" horiz-adv-x="1013" 
d="M954 -45q0 -97 -71.5 -178.5t-195 -128.5t-269.5 -47q-166 0 -274.5 67t-108.5 170q0 48 42.5 82.5t102.5 34.5q28 0 46 -10t46 -41v-78q-45 27 -59.5 33t-32.5 6q-22 0 -43.5 -20.5t-21.5 -45.5q0 -57 85 -101t191 -44q187 0 297.5 81.5t110.5 219.5q0 240 -303 240
q-108 0 -187 -48q-77 -47 -102 -47q-14 0 -53 39q111 96 135.5 125.5t27.5 73.5q-307 135 -307 328q0 129 124 222t296 93h211q22 -25 37 -25q29 0 29 78q0 32 -22 45t-110 35q17 52 33 65t58 13q106 0 106 -145q0 -23 -27 -132q0 -13 66 -94t66 -168q0 -121 -71.5 -181.5
t-283.5 -127.5q-136 -41 -151 -98h166q417 -18 417 -291zM719 666q0 48 -15 90t-29.5 61t-21.5 19q-81 -17 -98 -17q-70 0 -113 58q24 3 107 34q-100 19 -107 19q-117 0 -202.5 -78.5t-85.5 -185.5q0 -92 49.5 -169t109.5 -77q16 0 39 10q0 10 -14 51q0 24 46 52t91 28v-172
q112 19 178 94t66 183z" />
    <glyph glyph-name="h" unicode="h" horiz-adv-x="958" 
d="M899 -25q-227 19 -295 13h4q160 306 160 512q0 153 -73 247.5t-191 94.5q-89 0 -163.5 -63.5t-74.5 -133.5v-526q0 -60 68 -119h-252q53 53 53 92v1067h-104q47 73 116 142t107 81v-565q37 7 145 82q86 62 170 62q148 0 233 -105.5t85 -288.5q0 -81 -26.5 -163
t-119.5 -300q8 -3 17 -16q3 0 133 31q0 -87 8 -144z" />
    <glyph glyph-name="i" unicode="i" horiz-adv-x="325" 
d="M188 1171q0 -67 -65 -67q-66 0 -66 67q0 27 19.5 46.5t46.5 19.5q65 0 65 -66zM256 0h-225q41 111 41 117v448q0 182 -68 250q75 78 184 119v-672q0 -150 68 -262z" />
    <glyph glyph-name="j" unicode="j" horiz-adv-x="358" 
d="M246 1202q0 -25 -21 -45t-47 -20q-31 0 -54.5 24t-23.5 56q0 20 32 41.5t61 21.5q17 0 35 -26.5t18 -51.5zM287 -51q-28 -21 -123 -182q-43 -71 -79 -100.5t-77 -31.5q-23 0 -28 9t-11 59q7 0 21 14q5 0 59 -28q78 24 78 143v936q0 22 -33 51t-65 37q73 43 204 137v-977
q17 -67 54 -67z" />
    <glyph glyph-name="k" unicode="k" 
d="M860 80q0 -50 -15.5 -78.5t-62.5 -28.5q-81 0 -143 95q-121 210 -178 282t-152 123h-80v-344q0 -52 68 -129h-252q50 63 59 76t9 28v1051q-38 17 -50 19h5q0 -2 -50 -5q74 132 197 209v-788q90 0 187.5 51t160 122.5t62.5 129.5q0 23 -17.5 44t-36.5 21q-6 0 -67 -38
q-21 34 -21 63q0 38 33 73.5t68 35.5q131 0 131 -160q0 -133 -150 -250q-34 -24 -102.5 -72t-102.5 -71q59 -45 81 -61.5t58.5 -51.5t49 -51.5t46.5 -68t57 -93.5t75 -135q12 -21 57 -21q43 0 76 23z" />
    <glyph glyph-name="l" unicode="l" horiz-adv-x="380" 
d="M309 0h-237q37 77 45 106.5t8 90.5v909q0 65 -94 65q76 144 198 197v-1264q0 -8 56 -76q15 -18 24 -28z" />
    <glyph glyph-name="m" unicode="m" horiz-adv-x="1331" 
d="M1264 606q0 -85 -41.5 -183.5t-167.5 -316.5q48 -10 69 -10q8 0 74 10v-118q-54 9 -86 10.5t-164 1.5q112 285 135 364t23 189q0 137 -61 220t-162 83q-41 0 -93.5 -42.5t-52.5 -76.5q41 -149 41 -184q-37 -231 -92 -369t-121 -164q40 191 48 251.5t8 174.5
q0 204 -49.5 293.5t-161.5 89.5q-97 0 -141 -75t-44 -240q0 -198 8 -293t25.5 -139t58.5 -82h-249q20 38 43 68q8 8 8 38v539q0 82 -53 141q-54 60 -54 70q35 66 80 66q26 0 74 -60q47 -59 59 -59q11 0 41 37q49 60 99 84t122 24q39 0 78 -19t146 -87q97 76 138 97.5
t99 21.5q122 0 219 -107t97 -248z" />
    <glyph glyph-name="n" unicode="n" horiz-adv-x="950" 
d="M883 551q0 -94 -23.5 -172t-75.5 -160q-34 -52 -34 -67q0 -26 12.5 -39.5t73.5 -53.5q-102 -44 -157 -62t-116 -24q140 255 170.5 333.5t30.5 191.5q0 151 -80.5 253.5t-198.5 102.5q-107 0 -178 -83t-71 -208v-424q0 -62 10 -82t67 -57h-290q43 53 60 86t17 66v450
q0 89 -6.5 132t-19.5 66t-51 68q53 80 77 80q22 0 50.5 -25.5t97.5 -107.5q146 146 276 146q165 0 262 -111t97 -299z" />
    <glyph glyph-name="o" unicode="o" horiz-adv-x="1042" 
d="M979 479q0 -100 -40 -192.5t-107 -159.5t-159 -107t-192 -40q-135 0 -244 67t-169 181t-60 251q0 127 69 240t184.5 180.5t244.5 67.5q97 0 184.5 -38.5t150.5 -104t100.5 -156t37.5 -189.5zM874 399q0 68 -36 148.5t-94.5 150t-143.5 116t-172 46.5q-63 0 -134 -42
t-120 -110.5t-49 -136.5q0 -111 63.5 -225t162 -187t194.5 -73q122 0 225.5 99t103.5 214z" />
    <glyph glyph-name="p" unicode="p" horiz-adv-x="968" 
d="M913 528q0 -236 -134 -392t-335 -156q-55 0 -188 59v-189q0 -41 9 -60.5t50 -70.5q-75 -57 -114.5 -79.5t-87.5 -36.5l-4 1134q0 29 -21.5 51.5t-87.5 67.5q55 68 67.5 79t38.5 11q20 0 45 -24t105 -119q122 106 171.5 132t135.5 26q168 0 259 -113t91 -320zM786 510
q0 149 -79.5 251.5t-196.5 102.5q-41 0 -99.5 -35t-106.5 -100t-48 -135v-432q25 14 84 26q20 -93 39 -118t80 -25q82 0 158 68t122 176t47 221z" />
    <glyph glyph-name="q" unicode="q" horiz-adv-x="976" 
d="M911 860q0 -17 -26 -31q-43 -28 -60.5 -73.5t-17.5 -132.5v-723q0 -41 20 -95t45 -77l-198 -131l-12 26q26 116 26 211q0 32 -20 236q-128 -64 -166 -77t-103 -13q-152 0 -267.5 140t-115.5 345q0 67 15.5 135.5t49.5 135t82.5 117.5t119.5 82.5t155 31.5q134 0 264 -121
q71 79 95 100t49 21q65 -56 65 -107zM662 229v433q0 92 -73 165.5t-165 73.5q-106 0 -184 -107.5t-78 -248.5q0 -111 43 -212.5t112.5 -162.5t145.5 -61q52 0 87.5 22t111.5 98z" />
    <glyph glyph-name="r" unicode="r" horiz-adv-x="772" 
d="M729 815q0 -131 -117 -131q-41 0 -92 39q5 5 72 53q8 5 8 27q0 65 -106 65q-82 0 -153 -78.5t-71 -171.5v-395q0 -119 66 -223h-250q56 59 68 150q0 348 -23 490t-86 179q-37 21 -37 35q0 15 36 53.5t54 38.5q31 0 62.5 -27.5t101.5 -115.5q126 107 169 131t114 24
q77 0 130.5 -39.5t53.5 -103.5z" />
    <glyph glyph-name="s" unicode="s" horiz-adv-x="866" 
d="M799 330q0 -94 -66.5 -174.5t-181 -128t-248.5 -47.5q-142 0 -215.5 62.5t-73.5 170.5q0 77 67.5 136t156.5 59q196 0 196 -121q0 -44 -11.5 -63.5t-53.5 -49.5h-105q6 16 39 78q0 65 -106 65q-60 0 -102 -38t-42 -93q0 -61 68 -97t182 -36q167 0 279 71.5t112 178.5
q0 114 -162 160q-50 11 -151.5 32t-151.5 33q-161 55 -161 193q0 109 106 178.5t272 69.5q248 0 248 -156q0 -44 -53.5 -81.5t-116.5 -37.5q-129 0 -129 107q0 22 7.5 30.5t50.5 34.5q38 -62 71 -65q19 0 36.5 21t17.5 44q0 28 -42.5 47t-101.5 19q-111 0 -193.5 -50
t-82.5 -120q0 -64 66.5 -91t408.5 -106q166 -70 166 -235z" />
    <glyph glyph-name="t" unicode="t" horiz-adv-x="464" 
d="M383 883h-104v-647q0 -73 92 -144q-65 -92 -105 -92q-48 0 -90.5 106.5t-42.5 233.5v541q-25 2 -70 10q-11 0 -49 -10v67q36 2 50 3t32 5.5t22 7t9.5 13t5.5 19.5v30q0 15 -5 26.5t-34 65.5l174 185v-310q0 -20 16 -24.5t99 -7.5v-78z" />
    <glyph glyph-name="u" unicode="u" horiz-adv-x="921" 
d="M879 106q-46 -100 -91 -100q-32 0 -92 60q-56 59 -67 59q-13 0 -47 -37q-49 -58 -105.5 -83t-136.5 -25q-134 0 -237 118t-103 277q0 75 49 205t121 249q-50 13 -64 13q-55 -8 -79 -8v112q17 -3 139 -7.5t135 -4.5q-122 -226 -153 -303t-31 -166q0 -160 81 -263.5
t208 -103.5q91 0 157 65t66 156v502q0 21 -9 37t-57 80h250q-43 -43 -51.5 -68.5t-13.5 -115.5v-459q0 -33 46 -101t85 -88z" />
    <glyph glyph-name="v" unicode="v" horiz-adv-x="892" 
d="M827 825q0 -69 -83 -255t-184.5 -361t-153.5 -225q-87 114 -148.5 256t-151.5 432q-56 182 -96 243h250q-37 -68 -44 -85.5t-7 -43.5q0 -104 78.5 -324.5t150.5 -295.5q65 62 175 308.5t110 336.5q0 133 -78 133q-12 0 -67 -67q-25 45 -25 63q0 13 10 16q0 54 23 73.5
t84 19.5q69 0 113 -63.5t44 -160.5z" />
    <glyph glyph-name="w" unicode="w" horiz-adv-x="1239" 
d="M1157 858q0 -106 -50.5 -226t-311.5 -642q-65 190 -207 532l-246 -553q-189 670 -232 800t-92 179h236q-34 -42 -40.5 -53t-6.5 -29q140 -531 186 -583q88 197 238 546l200 -575q48 34 141 262t93 342q0 131 -76 131q-25 0 -49 -55q-70 15 -70 67q0 40 39 70.5t90 30.5
q84 0 120 -56.5t38 -187.5z" />
    <glyph glyph-name="x" unicode="x" horiz-adv-x="866" 
d="M807 0l-266 -2l10 25q-2 0 -4 28q0 66 -77 177.5t-110 133.5q-200 -200 -174 -309q2 -7 43 -45q-18 -3 -47 -21t-182 -120q52 265 162 399q107 107 160 162q-4 7 -30 55.5t-94.5 177t-131.5 246.5h247q-47 -74 -47 -78q0 -10 16 -55t55.5 -115.5t88.5 -119.5
q231 197 231 315q0 22 -20 50t-45 28q-14 -4 -21 -4q-1 0 -59 4q7 70 32 95.5t87 25.5q61 0 97 -43t36 -117q0 -82 -54 -158t-249 -276z" />
    <glyph glyph-name="y" unicode="y" 
d="M844 948q-76 -101 -76 -110q6 -44 7 -88.5t3 -264.5q0 -370 -22 -509.5t-99 -233.5q-101 -125 -313 -125q-63 0 -104 30t-41 74q0 48 125 78q4 -34 6 -49.5t8 -32t9 -21t16.5 -9t23 -4.5h35.5q75 0 120 38.5t103 155.5v236l-12 26q-126 -93 -165.5 -111t-123.5 -18
q-149 0 -238.5 111.5t-89.5 294.5q0 78 18 137.5t99 255.5q-14 5 -98 53q111 52 231 78q-3 -46 -69 -188q-64 -137 -64 -297q0 -146 79.5 -244t197.5 -98q97 0 166 73t69 176v474q0 21 -10 38.5t-53 73.5q105 10 141 17q34 0 121 -17z" />
    <glyph glyph-name="z" unicode="z" horiz-adv-x="884" 
d="M809 221q0 -211 -274 -211q-41 0 -80.5 7t-221.5 44q-57 0 -112 -38q-71 -47 -113 -56q116 289 180.5 405.5t171.5 233.5q123 135 222 273h-154q-122 0 -211 -50q-112 -64 -158 -73q38 126 113 241q74 -51 115 -51q19 0 51 12h471q-300 -339 -418 -501.5t-155 -286.5
l389 -80q133 27 133 92q0 19 -23.5 42.5t-44.5 23.5q-28 -28 -44.5 -37t-59.5 -16v104q34 34 48 41.5t56 13.5q119 0 119 -133z" />
    <glyph glyph-name="braceleft" unicode="{" horiz-adv-x="622" 
d="M549 -231q-99 0 -164.5 65.5t-65.5 165.5v580l-253 133l253 131v549q0 98 66.5 164.5t163.5 66.5v-131q-41 0 -69.5 -28.5t-28.5 -71.5v-615l-132 -67l132 -68v-643q0 -43 28.5 -71.5t69.5 -28.5v-131z" />
    <glyph glyph-name="bar" unicode="|" horiz-adv-x="262" 
d="M197 -131h-131v1655h131v-1655z" />
    <glyph glyph-name="braceright" unicode="}" horiz-adv-x="622" 
d="M549 713l-254 -133v-580q0 -100 -65.5 -165.5t-163.5 -65.5v131q40 0 69 29.5t29 70.5v643l131 68l-131 67v615q0 43 -28.5 71.5t-69.5 28.5v131q98 0 163.5 -66.5t65.5 -164.5v-549z" />
    <glyph glyph-name="asciitilde" unicode="~" horiz-adv-x="854" 
d="M782 1425q0 -101 -68 -169t-169 -68q-69 0 -137 51t-105 51q-43 0 -74.5 -31.5t-31.5 -74.5h-131q0 101 68 169t169 68q51 0 119 -51t123 -51q45 0 75.5 30.5t30.5 75.5h131z" />
    <glyph glyph-name="Adieresis" unicode="&#xc4;" horiz-adv-x="1386" 
d="M1321 0h-266q43 97 52 123t9 59q0 127 -73.5 268t-197.5 258t-265 175q-158 -249 -158 -629q0 -72 7 -119.5t32 -100.5t55 -96t94 -126q-99 -62 -215 -127q0 215 -28 358q-27 138 -27 250q0 297 135 608q-72 10 -106 10q-118 0 -187 -35.5t-69 -97.5q0 -13 21 -34t32 -21
q20 17 51 53q25 -36 25 -67q0 -44 -37.5 -75.5t-91.5 -31.5q-43 0 -82 44t-39 93q0 117 102 185.5t271 68.5q89 0 157 -14q286 403 787 403q-52 -85 -52 -161v-1074q0 -24 9 -44t55 -103zM1108 580v667q-15 27 -53 27q-97 0 -221 -89.5t-224 -226.5q121 -37 206 -102.5
t292 -275.5zM1128 1579q0 -41 -29.5 -70.5t-72.5 -29.5t-72.5 29.5t-29.5 70.5t30.5 71.5t71.5 30.5t71.5 -30.5t30.5 -71.5zM805 1579q0 -41 -30 -70.5t-73 -29.5t-72.5 29.5t-29.5 70.5t30.5 71.5t71.5 30.5t72 -30.5t31 -71.5z" />
    <glyph glyph-name="Aring" unicode="&#xc5;" horiz-adv-x="1386" 
d="M1321 0h-266q43 97 52 123t9 59q0 127 -73.5 268t-197.5 258t-265 175q-158 -249 -158 -629q0 -72 7 -119.5t32 -100.5t55 -96t94 -126q-99 -62 -215 -127q0 215 -28 358q-27 138 -27 250q0 297 135 608q-72 10 -106 10q-118 0 -187 -35.5t-69 -97.5q0 -13 21 -34t32 -21
q20 17 51 53q25 -36 25 -67q0 -44 -37.5 -75.5t-91.5 -31.5q-43 0 -82 44t-39 93q0 117 102 185.5t271 68.5q89 0 157 -14q286 403 787 403q-52 -85 -52 -161v-1074q0 -24 9 -44t55 -103zM1108 580v667q-15 27 -53 27q-97 0 -221 -89.5t-224 -226.5q121 -37 206 -102.5
t292 -275.5zM1114 1614q0 -60 -42 -101.5t-105 -42.5q-60 0 -101.5 41.5t-42.5 104.5q0 53 39 98.5t107 46.5q54 0 99 -39t46 -108zM969 1702q-35 0 -58.5 -23.5t-23.5 -60.5q0 -36 25.5 -59t60.5 -23q35 1 57.5 25.5t22.5 58.5q0 35 -24.5 58.5t-59.5 23.5z" />
    <glyph glyph-name="Ccedilla" unicode="&#xc7;" horiz-adv-x="1284" 
d="M1262 1337q0 -19 -13.5 -31.5t-58.5 -39.5q-23 83 -42 104t-71 21q-53 0 -92 -51t-39 -121q0 -48 41 -119q-45 -26 -76 -39q-38 141 -112.5 201.5t-208.5 60.5q-187 0 -310.5 -161t-123.5 -404q0 -184 72 -341t196.5 -249t271.5 -92q66 0 181 59q137 69 137 162
q-3 47 -96 65q15 80 81 80q78 0 78 -118q0 -126 -121 -224.5t-288 -105.5l-13 -37q135 -15 138 -117q0 -71 -65.5 -111.5t-182.5 -41.5q-41 0 -99 10l9 92h75q129 0 129 59q0 26 -27 38t-100 16l29 96q-152 20 -278.5 120t-199.5 256t-73 333q0 142 47 269t127.5 218
t193.5 144t240 53q74 0 156 -48q80 -45 107 -45q17 0 37 45q37 65 84 95t114 30q55 0 100.5 -39.5t45.5 -91.5z" />
    <glyph glyph-name="Eacute" unicode="&#xc9;" horiz-adv-x="1294" 
d="M1260 1151q0 -195 -277 -287q-383 -92 -512 -125q-276 -77 -276 -233q0 -64 49 -141t121.5 -140t161.5 -106t163 -43q51 0 148 26.5t135 53.5q78 60 90 206q44 -26 53 -41t12 -63q0 -69 -63 -133.5t-167 -104.5t-216 -40q-291 0 -474 198t-183 512q0 152 49.5 286.5
t135 231t204.5 152t254 55.5q142 0 229.5 -53.5t87.5 -142.5q0 -60 -26 -83.5t-93 -23.5h-65q39 91 39 107q0 47 -69 81.5t-155 34.5q-194 0 -321.5 -144t-149.5 -392q0 -59 13 -148q42 30 119 86.5t104 75.5q135 81 407 127q394 27 394 172q0 39 -33 59t-33 33q0 53 66 53
q31 0 54.5 -31.5t23.5 -74.5zM961 1669q-193 -105 -310 -192l-61 53q24 39 127.5 126t134.5 87q35 0 109 -74z" />
    <glyph glyph-name="Ntilde" unicode="&#xd1;" horiz-adv-x="1191" 
d="M1130 0h-235q20 28 33.5 77.5t13.5 96.5q0 139 -16 215q-78 -126 -181 -129q-58 0 -97.5 37.5t-39.5 93.5q0 49 24 82t58 33q29 0 51 -25l-28 -82q0 -34 67 -37q33 -1 61.5 41t28.5 86q0 102 -131 189q-97 57 -141 83.5t-103 62t-82.5 53t-55 41t-45.5 41t-29.5 38
t-30.5 47.5l-62 -901q1 -28 14.5 -51t63.5 -92h-262q70 40 96 143l58 779q14 212 16 319q0 19 -11.5 41t-51.5 76h247q-60 -58 -70.5 -73.5t-10.5 -43.5q0 -108 143 -203q196 -110 279.5 -160.5t124.5 -84.5t69 -76l-47 530q-7 21 -82 111h248q-43 -52 -54.5 -71t-11.5 -40
q0 -47 99 -1145q6 -26 19 -42t64 -60zM872 1628q-58 -147 -176 -147q-27 0 -64 11.5t-173 59.5q-48 0 -88 -69l-45 33q34 141 159 141q36 0 131 -39q79 -31 117 -31q60 0 94 70z" />
    <glyph glyph-name="Odieresis" unicode="&#xd6;" horiz-adv-x="1210" 
d="M1139 696q0 -202 -74 -366t-205.5 -257t-294.5 -93q-113 0 -214 50.5t-175 138.5t-117 215t-43 273q0 131 42 262.5t113 224.5t151 113q-175 -217 -175 -495q0 -173 69 -327t184.5 -246.5t244.5 -92.5q164 0 270.5 142.5t106.5 365.5q0 175 -62.5 336t-165.5 258.5
t-214 97.5q-119 0 -119 -102q0 -19 23 -42.5t42 -23.5q46 19 66 25q0 -86 -23.5 -114.5t-81.5 -28.5t-94.5 49.5t-36.5 120.5q0 85 78 147t184 62q145 0 264 -89.5t188 -248.5t69 -355zM858 1583q0 -41 -29.5 -70.5t-72.5 -29.5t-73 29.5t-30 70.5t31 72t72 31t71.5 -31
t30.5 -72zM535 1583q0 -41 -30 -70.5t-73 -29.5t-72.5 29.5t-29.5 70.5t30.5 72t71.5 31t72 -31t31 -72z" />
    <glyph glyph-name="Udieresis" unicode="&#xdc;" horiz-adv-x="1210" 
d="M1184 98q-34 -104 -129 -104q-42 0 -68 25t-98 131q-177 -117 -235 -143.5t-152 -26.5q-136 0 -248.5 77.5t-177 214t-64.5 301.5q0 145 54.5 267.5t185.5 275.5q108 121 129 166h-49q-40 0 -73 8t-140 45q-13 0 -27 -14.5t-14 -28.5q0 -18 22 -18q21 0 45 8q9 -27 9 -47
q0 -24 -15 -38.5t-39 -14.5q-61 0 -61 88q0 58 51.5 100.5t120.5 42.5q184 -47 197 -47q24 0 67 16q32 11 109 11q-9 -27 -125 -158q-161 -184 -231 -329t-70 -294q0 -141 56 -259.5t153 -186.5t213 -68q38 0 113.5 33t138.5 81t63 83v711q0 141 -6.5 208t-20.5 100t-51 81
q52 8 277 8q-44 -44 -55 -76.5t-11 -122.5v-870q0 -121 38 -178.5t118 -57.5zM952 1583q0 -41 -29.5 -70.5t-72.5 -29.5t-72.5 29.5t-29.5 70.5t30.5 72t71.5 31t71.5 -31t30.5 -72zM629 1583q0 -41 -30 -70.5t-73 -29.5t-72.5 29.5t-29.5 70.5t30.5 72t71.5 31t72 -31
t31 -72z" />
    <glyph glyph-name="aacute" unicode="&#xe1;" 
d="M858 0h-145q-17 11 -22.5 26t-28.5 99q-95 -145 -289 -145q-164 0 -265.5 93.5t-101.5 245.5q0 87 58 165.5t158.5 126.5t215.5 48q56 0 158 -24q-31 109 -136 199t-204 90q-63 0 -104 -33.5t-41 -85.5q0 -64 36 -64q26 0 35 15t19 63h55q14 -20 14 -59q0 -113 -96 -113
q-54 0 -98.5 46t-44.5 100q0 73 83.5 128.5t192.5 55.5q189 0 308 -137.5t182 -427.5q13 -65 61 -412zM674 332q0 102 -72 169.5t-178 67.5q-63 0 -111 -16t-76 -40t-45.5 -57t-23.5 -63t-6 -61q0 -88 78 -161t172 -73t178 73t84 161zM633 1300q-189 -103 -309 -192l-62 53
q24 39 127.5 126t134.5 87q35 0 109 -74z" />
    <glyph glyph-name="agrave" unicode="&#xe0;" 
d="M858 0h-145q-17 11 -22.5 26t-28.5 99q-95 -145 -289 -145q-164 0 -265.5 93.5t-101.5 245.5q0 87 58 165.5t158.5 126.5t215.5 48q56 0 158 -24q-31 109 -136 199t-204 90q-63 0 -104 -33.5t-41 -85.5q0 -64 36 -64q26 0 35 15t19 63h55q14 -20 14 -59q0 -113 -96 -113
q-54 0 -98.5 46t-44.5 100q0 73 83.5 128.5t192.5 55.5q189 0 308 -137.5t182 -427.5q13 -65 61 -412zM674 332q0 102 -72 169.5t-178 67.5q-63 0 -111 -16t-76 -40t-45.5 -57t-23.5 -63t-6 -61q0 -88 78 -161t172 -73t178 73t84 161zM539 1161l-62 -53q-120 89 -309 192
q74 74 108 74q32 0 135.5 -87t127.5 -126z" />
    <glyph glyph-name="acircumflex" unicode="&#xe2;" 
d="M858 0h-145q-17 11 -22.5 26t-28.5 99q-95 -145 -289 -145q-164 0 -265.5 93.5t-101.5 245.5q0 87 58 165.5t158.5 126.5t215.5 48q56 0 158 -24q-31 109 -136 199t-204 90q-63 0 -104 -33.5t-41 -85.5q0 -64 36 -64q26 0 35 15t19 63h55q14 -20 14 -59q0 -113 -96 -113
q-54 0 -98.5 46t-44.5 100q0 73 83.5 128.5t192.5 55.5q189 0 308 -137.5t182 -427.5q13 -65 61 -412zM674 332q0 102 -72 169.5t-178 67.5q-63 0 -111 -16t-76 -40t-45.5 -57t-23.5 -63t-6 -61q0 -88 78 -161t172 -73t178 73t84 161zM715 1180q-62 -68 -101 -68
q-111 0 -231 105q-120 -105 -231 -105q-39 0 -101 68q169 27 332 190q163 -163 332 -190z" />
    <glyph glyph-name="adieresis" unicode="&#xe4;" 
d="M858 0h-145q-17 11 -22.5 26t-28.5 99q-95 -145 -289 -145q-164 0 -265.5 93.5t-101.5 245.5q0 87 58 165.5t158.5 126.5t215.5 48q56 0 158 -24q-31 109 -136 199t-204 90q-63 0 -104 -33.5t-41 -85.5q0 -64 36 -64q26 0 35 15t19 63h55q14 -20 14 -59q0 -113 -96 -113
q-54 0 -98.5 46t-44.5 100q0 73 83.5 128.5t192.5 55.5q189 0 308 -137.5t182 -427.5q13 -65 61 -412zM674 332q0 102 -72 169.5t-178 67.5q-63 0 -111 -16t-76 -40t-45.5 -57t-23.5 -63t-6 -61q0 -88 78 -161t172 -73t178 73t84 161zM715 1210q0 -41 -30 -70.5t-73 -29.5
t-72.5 29.5t-29.5 70.5t30.5 72t71.5 31t72 -31t31 -72zM391 1210q0 -41 -29.5 -70.5t-72.5 -29.5t-73 29.5t-30 70.5t31 72t72 31t71.5 -31t30.5 -72z" />
    <glyph glyph-name="atilde" unicode="&#xe3;" 
d="M858 0h-145q-17 11 -22.5 26t-28.5 99q-95 -145 -289 -145q-164 0 -265.5 93.5t-101.5 245.5q0 87 58 165.5t158.5 126.5t215.5 48q56 0 158 -24q-31 109 -136 199t-204 90q-63 0 -104 -33.5t-41 -85.5q0 -64 36 -64q26 0 35 15t19 63h55q14 -20 14 -59q0 -113 -96 -113
q-54 0 -98.5 46t-44.5 100q0 73 83.5 128.5t192.5 55.5q189 0 308 -137.5t182 -427.5q13 -65 61 -412zM674 332q0 102 -72 169.5t-178 67.5q-63 0 -111 -16t-76 -40t-45.5 -57t-23.5 -63t-6 -61q0 -88 78 -161t172 -73t178 73t84 161zM676 1255q-58 -147 -176 -147
q-26 0 -62 11t-176 61q-48 0 -88 -70l-45 33q35 141 160 141q36 0 131 -39q79 -31 117 -31q60 0 94 70z" />
    <glyph glyph-name="aring" unicode="&#xe5;" 
d="M858 0h-145q-17 11 -22.5 26t-28.5 99q-95 -145 -289 -145q-164 0 -265.5 93.5t-101.5 245.5q0 87 58 165.5t158.5 126.5t215.5 48q56 0 158 -24q-31 109 -136 199t-204 90q-63 0 -104 -33.5t-41 -85.5q0 -64 36 -64q26 0 35 15t19 63h55q14 -20 14 -59q0 -113 -96 -113
q-54 0 -98.5 46t-44.5 100q0 73 83.5 128.5t192.5 55.5q189 0 308 -137.5t182 -427.5q13 -65 61 -412zM674 332q0 102 -72 169.5t-178 67.5q-63 0 -111 -16t-76 -40t-45.5 -57t-23.5 -63t-6 -61q0 -88 78 -161t172 -73t178 73t84 161zM567 1251q0 -60 -42 -100.5t-105 -42.5
q-60 0 -101.5 41t-42.5 104q0 53 39 99t107 47q53 0 98.5 -39.5t46.5 -108.5zM422 1339q-34 2 -58 -22.5t-24 -61.5q0 -36 25.5 -58.5t60.5 -22.5q35 3 57.5 26t22.5 57q0 35 -24.5 58.5t-59.5 23.5z" />
    <glyph glyph-name="ccedilla" unicode="&#xe7;" 
d="M858 264q-55 -117 -164 -188t-235 -74l-17 -53q135 -15 138 -117q0 -71 -65.5 -112t-182.5 -42q-35 0 -99 11l9 92h75q129 0 129 59q0 26 -27 38t-100 16l37 124q-166 44 -253 164.5t-87 304.5q0 131 68 250.5t181 191.5t237 72q116 0 203.5 -71t87.5 -166
q0 -91 -56 -144t-153 -53q-75 0 -117.5 38.5t-42.5 105.5q0 51 10.5 64.5t67.5 41.5q26 -88 26 -96q21 -35 80 -35q34 0 63 30.5t29 74.5q0 63 -54.5 110t-129.5 47q-99 0 -190.5 -56t-147 -147t-55.5 -190q0 -83 32.5 -163t85.5 -139.5t125.5 -95.5t149.5 -36q85 0 186 61
q117 72 156 82z" />
    <glyph glyph-name="eacute" unicode="&#xe9;" horiz-adv-x="931" 
d="M870 231q-29 -112 -142 -181.5t-265 -69.5q-62 0 -98 10t-140 55q-65 -56 -65 -104q0 -38 26 -52q27 -15 27 -41v-53q-131 3 -131 107q0 27 11 54.5t67 141.5q-54 75 -74.5 106t-41.5 76.5t-25.5 84t-4.5 102.5q0 205 134 346t329 141q134 0 301 -92l-461 -686
q81 -78 226 -78q85 0 139.5 22.5t187.5 110.5zM582 770q0 49 -52 84t-120 35q-69 0 -136.5 -51t-110 -134.5t-42.5 -171.5q0 -76 34.5 -155.5t90.5 -132.5q89 89 212.5 287t123.5 239zM674 1300q-189 -103 -309 -192l-62 53q24 39 127.5 126t134.5 87q35 0 109 -74z" />
    <glyph glyph-name="egrave" unicode="&#xe8;" horiz-adv-x="931" 
d="M870 231q-29 -112 -142 -181.5t-265 -69.5q-62 0 -98 10t-140 55q-65 -56 -65 -104q0 -38 26 -52q27 -15 27 -41v-53q-131 3 -131 107q0 27 11 54.5t67 141.5q-54 75 -74.5 106t-41.5 76.5t-25.5 84t-4.5 102.5q0 205 134 346t329 141q134 0 301 -92l-461 -686
q81 -78 226 -78q85 0 139.5 22.5t187.5 110.5zM582 770q0 49 -52 84t-120 35q-69 0 -136.5 -51t-110 -134.5t-42.5 -171.5q0 -76 34.5 -155.5t90.5 -132.5q89 89 212.5 287t123.5 239zM559 1161l-61 -53q-117 87 -310 192q74 74 109 74q31 0 134.5 -87t127.5 -126z" />
    <glyph glyph-name="ecircumflex" unicode="&#xea;" horiz-adv-x="931" 
d="M870 231q-29 -112 -142 -181.5t-265 -69.5q-62 0 -98 10t-140 55q-65 -56 -65 -104q0 -38 26 -52q27 -15 27 -41v-53q-131 3 -131 107q0 27 11 54.5t67 141.5q-54 75 -74.5 106t-41.5 76.5t-25.5 84t-4.5 102.5q0 205 134 346t329 141q134 0 301 -92l-461 -686
q81 -78 226 -78q85 0 139.5 22.5t187.5 110.5zM582 770q0 49 -52 84t-120 35q-69 0 -136.5 -51t-110 -134.5t-42.5 -171.5q0 -76 34.5 -155.5t90.5 -132.5q89 89 212.5 287t123.5 239zM797 1180q-62 -68 -101 -68q-111 0 -231 105q-120 -105 -232 -105q-38 0 -100 68
q169 27 332 190q163 -163 332 -190z" />
    <glyph glyph-name="edieresis" unicode="&#xeb;" horiz-adv-x="931" 
d="M870 231q-29 -112 -142 -181.5t-265 -69.5q-62 0 -98 10t-140 55q-65 -56 -65 -104q0 -38 26 -52q27 -15 27 -41v-53q-131 3 -131 107q0 27 11 54.5t67 141.5q-54 75 -74.5 106t-41.5 76.5t-25.5 84t-4.5 102.5q0 205 134 346t329 141q134 0 301 -92l-461 -686
q81 -78 226 -78q85 0 139.5 22.5t187.5 110.5zM582 770q0 49 -52 84t-120 35q-69 0 -136.5 -51t-110 -134.5t-42.5 -171.5q0 -76 34.5 -155.5t90.5 -132.5q89 89 212.5 287t123.5 239zM735 1210q0 -41 -29.5 -70.5t-72.5 -29.5t-73 29.5t-30 70.5t31 72t72 31t71.5 -31
t30.5 -72zM412 1210q0 -41 -30 -70.5t-73 -29.5t-72.5 29.5t-29.5 70.5t30.5 72t71.5 31t72 -31t31 -72z" />
    <glyph glyph-name="iacute" unicode="&#xed;" horiz-adv-x="325" 
d="M256 0h-225q41 111 41 117v448q0 182 -68 250q75 78 184 119v-672q0 -150 68 -262zM346 1300q-189 -103 -309 -192l-62 53q24 39 127.5 126t135.5 87q34 0 108 -74z" />
    <glyph glyph-name="igrave" unicode="&#xec;" horiz-adv-x="325" 
d="M256 0h-225q41 111 41 117v448q0 182 -68 250q75 78 184 119v-672q0 -150 68 -262zM231 1161l-61 -53q-120 89 -309 192q74 74 108 74q31 0 134.5 -87t127.5 -126z" />
    <glyph glyph-name="icircumflex" unicode="&#xee;" horiz-adv-x="325" 
d="M256 0h-225q41 111 41 117v448q0 182 -68 250q75 78 184 119v-672q0 -150 68 -262zM469 1180q-62 -68 -100 -68q-112 0 -232 105q-120 -105 -231 -105q-39 0 -101 68q169 27 332 190q163 -163 332 -190z" />
    <glyph glyph-name="idieresis" unicode="&#xef;" horiz-adv-x="325" 
d="M256 0h-225q41 111 41 117v448q0 182 -68 250q75 78 184 119v-672q0 -150 68 -262zM387 1210q0 -41 -29.5 -70.5t-72.5 -29.5t-73 29.5t-30 70.5t31 72t72 31t71.5 -31t30.5 -72zM63 1210q0 -41 -29.5 -70.5t-72.5 -29.5t-72.5 29.5t-29.5 70.5t30.5 72t71.5 31t71.5 -31
t30.5 -72z" />
    <glyph glyph-name="ntilde" unicode="&#xf1;" horiz-adv-x="950" 
d="M883 551q0 -94 -23.5 -172t-75.5 -160q-34 -52 -34 -67q0 -26 12.5 -39.5t73.5 -53.5q-102 -44 -157 -62t-116 -24q140 255 170.5 333.5t30.5 191.5q0 151 -80.5 253.5t-198.5 102.5q-107 0 -178 -83t-71 -208v-424q0 -62 10 -82t67 -57h-290q43 53 60 86t17 66v450
q0 89 -6.5 132t-19.5 66t-51 68q53 80 77 80q22 0 50.5 -25.5t97.5 -107.5q146 146 276 146q165 0 262 -111t97 -299zM778 1255q-58 -147 -176 -147q-26 0 -60.5 10.5t-176.5 61.5q-49 0 -89 -70l-45 33q35 141 160 141q36 0 131 -39q79 -31 117 -31q60 0 94 70z" />
    <glyph glyph-name="oacute" unicode="&#xf3;" horiz-adv-x="1042" 
d="M979 479q0 -100 -40 -192.5t-107 -159.5t-159 -107t-192 -40q-135 0 -244 67t-169 181t-60 251q0 127 69 240t184.5 180.5t244.5 67.5q97 0 184.5 -38.5t150.5 -104t100.5 -156t37.5 -189.5zM874 399q0 68 -36 148.5t-94.5 150t-143.5 116t-172 46.5q-63 0 -134 -42
t-120 -110.5t-49 -136.5q0 -111 63.5 -225t162 -187t194.5 -73q122 0 225.5 99t103.5 214zM674 1300q-189 -103 -309 -192l-62 53q24 39 127.5 126t134.5 87q35 0 109 -74z" />
    <glyph glyph-name="ograve" unicode="&#xf2;" horiz-adv-x="1042" 
d="M979 479q0 -100 -40 -192.5t-107 -159.5t-159 -107t-192 -40q-135 0 -244 67t-169 181t-60 251q0 127 69 240t184.5 180.5t244.5 67.5q97 0 184.5 -38.5t150.5 -104t100.5 -156t37.5 -189.5zM874 399q0 68 -36 148.5t-94.5 150t-143.5 116t-172 46.5q-63 0 -134 -42
t-120 -110.5t-49 -136.5q0 -111 63.5 -225t162 -187t194.5 -73q122 0 225.5 99t103.5 214zM662 1161l-62 -53q-120 89 -309 192q74 74 108 74q32 0 135.5 -87t127.5 -126z" />
    <glyph glyph-name="ocircumflex" unicode="&#xf4;" horiz-adv-x="1042" 
d="M979 479q0 -100 -40 -192.5t-107 -159.5t-159 -107t-192 -40q-135 0 -244 67t-169 181t-60 251q0 127 69 240t184.5 180.5t244.5 67.5q97 0 184.5 -38.5t150.5 -104t100.5 -156t37.5 -189.5zM874 399q0 68 -36 148.5t-94.5 150t-143.5 116t-172 46.5q-63 0 -134 -42
t-120 -110.5t-49 -136.5q0 -111 63.5 -225t162 -187t194.5 -73q122 0 225.5 99t103.5 214zM838 1180q-62 -68 -101 -68q-111 0 -231 105q-120 -105 -232 -105q-38 0 -100 68q169 27 332 190q163 -163 332 -190z" />
    <glyph glyph-name="odieresis" unicode="&#xf6;" horiz-adv-x="1042" 
d="M979 479q0 -100 -40 -192.5t-107 -159.5t-159 -107t-192 -40q-135 0 -244 67t-169 181t-60 251q0 127 69 240t184.5 180.5t244.5 67.5q97 0 184.5 -38.5t150.5 -104t100.5 -156t37.5 -189.5zM874 399q0 68 -36 148.5t-94.5 150t-143.5 116t-172 46.5q-63 0 -134 -42
t-120 -110.5t-49 -136.5q0 -111 63.5 -225t162 -187t194.5 -73q122 0 225.5 99t103.5 214zM756 1210q0 -41 -30 -70.5t-73 -29.5t-72.5 29.5t-29.5 70.5t30.5 72t71.5 31t72 -31t31 -72zM432 1210q0 -41 -29.5 -70.5t-72.5 -29.5t-73 29.5t-30 70.5t31 72t72 31t71.5 -31
t30.5 -72z" />
    <glyph glyph-name="otilde" unicode="&#xf5;" horiz-adv-x="1042" 
d="M979 479q0 -100 -40 -192.5t-107 -159.5t-159 -107t-192 -40q-135 0 -244 67t-169 181t-60 251q0 127 69 240t184.5 180.5t244.5 67.5q97 0 184.5 -38.5t150.5 -104t100.5 -156t37.5 -189.5zM874 399q0 68 -36 148.5t-94.5 150t-143.5 116t-172 46.5q-63 0 -134 -42
t-120 -110.5t-49 -136.5q0 -111 63.5 -225t162 -187t194.5 -73q122 0 225.5 99t103.5 214zM782 1257q-58 -161 -188 -161q-35 0 -71.5 10.5t-166.5 60.5q-43 0 -86 -73l-59 43q40 155 172 155q44 0 135 -39q76 -30 113 -30q56 0 90 75z" />
    <glyph glyph-name="uacute" unicode="&#xfa;" horiz-adv-x="921" 
d="M879 106q-46 -100 -91 -100q-32 0 -92 60q-56 59 -67 59q-13 0 -47 -37q-49 -58 -105.5 -83t-136.5 -25q-134 0 -237 118t-103 277q0 75 49 205t121 249q-50 13 -64 13q-55 -8 -79 -8v112q17 -3 139 -7.5t135 -4.5q-122 -226 -153 -303t-31 -166q0 -160 81 -263.5
t208 -103.5q91 0 157 65t66 156v502q0 21 -9 37t-57 80h250q-43 -43 -51.5 -68.5t-13.5 -115.5v-459q0 -33 46 -101t85 -88zM674 1300q-189 -103 -309 -192l-62 53q24 39 127.5 126t134.5 87q35 0 109 -74z" />
    <glyph glyph-name="ugrave" unicode="&#xf9;" horiz-adv-x="921" 
d="M879 106q-46 -100 -91 -100q-32 0 -92 60q-56 59 -67 59q-13 0 -47 -37q-49 -58 -105.5 -83t-136.5 -25q-134 0 -237 118t-103 277q0 75 49 205t121 249q-50 13 -64 13q-55 -8 -79 -8v112q17 -3 139 -7.5t135 -4.5q-122 -226 -153 -303t-31 -166q0 -160 81 -263.5
t208 -103.5q91 0 157 65t66 156v502q0 21 -9 37t-57 80h250q-43 -43 -51.5 -68.5t-13.5 -115.5v-459q0 -33 46 -101t85 -88zM600 1161l-61 -53q-117 87 -310 192q74 74 109 74q31 0 134.5 -87t127.5 -126z" />
    <glyph glyph-name="ucircumflex" unicode="&#xfb;" horiz-adv-x="921" 
d="M879 106q-46 -100 -91 -100q-32 0 -92 60q-56 59 -67 59q-13 0 -47 -37q-49 -58 -105.5 -83t-136.5 -25q-134 0 -237 118t-103 277q0 75 49 205t121 249q-50 13 -64 13q-55 -8 -79 -8v112q17 -3 139 -7.5t135 -4.5q-122 -226 -153 -303t-31 -166q0 -160 81 -263.5
t208 -103.5q91 0 157 65t66 156v502q0 21 -9 37t-57 80h250q-43 -43 -51.5 -68.5t-13.5 -115.5v-459q0 -33 46 -101t85 -88zM756 1180q-62 -68 -101 -68q-111 0 -231 105q-120 -105 -231 -105q-39 0 -101 68q169 27 332 190q163 -163 332 -190z" />
    <glyph glyph-name="udieresis" unicode="&#xfc;" horiz-adv-x="921" 
d="M879 106q-46 -100 -91 -100q-32 0 -92 60q-56 59 -67 59q-13 0 -47 -37q-49 -58 -105.5 -83t-136.5 -25q-134 0 -237 118t-103 277q0 75 49 205t121 249q-50 13 -64 13q-55 -8 -79 -8v112q17 -3 139 -7.5t135 -4.5q-122 -226 -153 -303t-31 -166q0 -160 81 -263.5
t208 -103.5q91 0 157 65t66 156v502q0 21 -9 37t-57 80h250q-43 -43 -51.5 -68.5t-13.5 -115.5v-459q0 -33 46 -101t85 -88zM694 1210q0 -41 -29.5 -70.5t-72.5 -29.5t-73 29.5t-30 70.5t31 72t72 31t71.5 -31t30.5 -72zM371 1210q0 -41 -30 -70.5t-73 -29.5t-72.5 29.5
t-29.5 70.5t30.5 72t71.5 31t72 -31t31 -72z" />
    <glyph glyph-name="dagger" unicode="&#x2020;" horiz-adv-x="1138" 
d="M1032 903h-385v-1208h-151v1208h-387v115h387v432h151v-432h385v-115z" />
    <glyph glyph-name="degree" unicode="&#xb0;" horiz-adv-x="819" 
d="M688 1141q0 -120 -79 -199.5t-199 -79.5t-199.5 79.5t-79.5 199.5t79.5 199t199.5 79t199 -79t79 -199zM631 1141q0 91 -66.5 161t-154.5 70t-155 -69.5t-67 -161.5q0 -94 66.5 -163t155.5 -69q88 0 154.5 70t66.5 162z" />
    <glyph glyph-name="cent" unicode="&#xa2;" 
d="M858 240q-56 -119 -167 -191t-240 -72q-8 0 -95 17l-80 -289h-92l88 318q-256 120 -256 440q0 109 45.5 207t118 164t161.5 104.5t177 38.5l72 246h92l-76 -265q83 -28 135 -88.5t52 -130.5q0 -91 -56 -143.5t-153 -52.5q-75 0 -117.5 38t-42.5 105q0 51 10.5 65t67.5 42
q26 -88 26 -97q21 -34 80 -34q34 0 63 30t29 74q0 63 -54.5 110.5t-129.5 47.5q-99 0 -190.5 -56t-147 -147.5t-55.5 -190.5q0 -83 32.5 -163t85.5 -139.5t125.5 -95.5t149.5 -36q83 0 186 62q117 72 156 82z" />
    <glyph glyph-name="sterling" unicode="&#xa3;" horiz-adv-x="1138" 
d="M1104 66q-129 -99 -260 -99q-64 0 -203 45q-146 47 -225 47q-109 0 -240 -82l-100 142q116 77 183 179.5t67 203.5q0 62 -39 147h-219v129h141q-88 180 -88 275q0 186 134 301.5t372 115.5q37 0 73.5 -4.5t81.5 -17.5t84 -33.5t77 -57t64.5 -83.5t43 -116.5t16.5 -153.5
h-180q0 146 -75 228.5t-206 82.5q-126 0 -209.5 -72t-83.5 -180q0 -95 105 -285h342v-129h-283q19 -74 19 -135q0 -100 -66 -201.5t-182 -179.5l4 4v-4q131 76 268 76q71 0 189 -37q122 -35 155 -35q92 0 156 64z" />
    <glyph glyph-name="section" unicode="&#xa7;" horiz-adv-x="1138" 
d="M1049 500q0 -196 -211 -328q106 -112 106 -233q0 -139 -107 -234.5t-264 -95.5q-189 0 -296 98t-107 287h180q0 -230 199 -230q215 0 215 170q0 86 -113 162l-430 287q-133 89 -133 250q0 110 47 184t158 139q-96 107 -96 205q0 146 97.5 247t270.5 101q180 0 278.5 -97
t98.5 -277h-174q-15 219 -203 219q-85 0 -136.5 -45.5t-51.5 -120.5q0 -96 149 -184l299 -177q224 -131 224 -327zM879 461q0 119 -127 196l-357 220q-137 -70 -137 -199q0 -115 92 -174l387 -250q142 92 142 207z" />
    <glyph glyph-name="bullet" unicode="&#x2022;" horiz-adv-x="716" 
d="M662 735q0 -126 -89 -213.5t-215 -87.5t-213.5 87.5t-87.5 213.5t87.5 214.5t213.5 88.5q125 0 214.5 -89.5t89.5 -213.5z" />
    <glyph glyph-name="paragraph" unicode="&#xb6;" horiz-adv-x="1077" 
d="M969 -352h-260v1757h-195v-1757h-272v45q60 7 99.5 56.5t39.5 115.5v780q-143 0 -216 105.5t-73 310.5q0 214 88 300.5t299 86.5h490v-43q-71 -6 -100 -43.5t-29 -122.5v-1374q0 -157 129 -172v-45z" />
    <glyph glyph-name="germandbls" unicode="&#xdf;" horiz-adv-x="1251" 
d="M1167 313q0 -139 -97.5 -229t-248.5 -90q-222 0 -336 211l119 57q92 -160 215 -160q84 0 144.5 57.5t60.5 137.5q0 34 -2.5 49.5t-17.5 39t-45.5 47.5t-88.5 65q-146 102 -191.5 156.5t-45.5 125.5q0 32 12 62q95 169 122.5 235.5t27.5 110.5q0 80 -60 128t-160 48
q-138 0 -200 -87.5t-62 -285.5v-971h-139v979q0 471 406 471q152 0 249 -79t97 -203q0 -53 -18.5 -99t-114.5 -231q-15 -34 -15 -61q0 -43 32.5 -81.5t119.5 -94.5q143 -96 189.5 -155.5t47.5 -152.5z" />
    <glyph glyph-name="registered" unicode="&#xae;" horiz-adv-x="1509" 
d="M1520 737q0 -157 -59.5 -297t-161 -240.5t-242.5 -159t-299 -58.5q-212 0 -388 98.5t-277 272t-101 384.5q0 158 59.5 297.5t161.5 239t244 157.5t301 58q211 0 386 -99.5t275.5 -272t100.5 -380.5zM1405 737q0 186 -84 338t-232.5 239t-330.5 87q-138 0 -259 -50.5
t-207 -138t-136 -211t-50 -264.5q0 -190 84.5 -342.5t234 -238.5t333.5 -86q133 0 252 49.5t206 136.5t138 212t51 269zM1100 309h-103l-235 387h-189v-387h-94v852h320q295 0 295 -233q0 -201 -244 -228zM993 936q0 151 -215 151h-205v-317h183q130 0 183.5 37.5
t53.5 128.5z" />
    <glyph glyph-name="copyright" unicode="&#xa9;" horiz-adv-x="1509" 
d="M1520 737q0 -157 -59.5 -297t-161 -240.5t-242.5 -159t-299 -58.5q-212 0 -388 98.5t-277 272t-101 384.5q0 158 59.5 297.5t161.5 239t244 157.5t301 58q211 0 386 -99.5t275.5 -272t100.5 -380.5zM1405 737q0 186 -84 338t-232.5 239t-330.5 87q-138 0 -259 -50.5
t-207 -138t-136 -211t-50 -264.5q0 -190 84.5 -342.5t234 -238.5t333.5 -86q133 0 252 49.5t206 136.5t138 212t51 269zM1139 571q-32 -132 -128.5 -210t-226.5 -78q-192 0 -314 127.5t-122 328.5q0 205 117 329t311 124q142 0 240 -76t123 -205h-97q-25 85 -96.5 136
t-167.5 51q-146 0 -230.5 -96t-84.5 -261q0 -159 89 -261.5t232 -102.5q97 0 167.5 52.5t90.5 141.5h97z" />
    <glyph glyph-name="trademark" unicode="&#x2122;" horiz-adv-x="2048" 
d="M1849 627h-149v686h-4l-264 -686h-103l-264 686h-4v-686h-150v843h230l241 -620l238 620h229v-843zM764 1348h-260v-721h-150v721h-260v122h670v-122z" />
    <glyph glyph-name="acute" unicode="&#xb4;" horiz-adv-x="681" 
d="M571 1190q-184 -100 -309 -193l-61 54q24 39 127.5 126t134.5 87q34 0 108 -74z" />
    <glyph glyph-name="dieresis" unicode="&#xa8;" horiz-adv-x="866" 
d="M694 1661q0 -41 -29.5 -70.5t-72.5 -29.5t-73 29.5t-30 70.5t31 71.5t72 30.5t71.5 -30.5t30.5 -71.5zM371 1661q0 -41 -30 -70.5t-73 -29.5t-72.5 29.5t-29.5 70.5t30.5 71.5t71.5 30.5t72 -30.5t31 -71.5z" />
    <glyph glyph-name="AE" unicode="&#xc6;" horiz-adv-x="2174" 
d="M2140 1151q0 -132 -116 -210t-402 -136q-291 -61 -365 -92v-498q160 -139 312 -139q56 0 151.5 27t132.5 53q79 61 91 206q44 -26 53 -41t12 -63q0 -69 -63 -133.5t-167 -104.5t-216 -40q-145 0 -242 20h-266q43 97 52 123t9 59q0 127 -73.5 268t-197.5 258t-265 175
q-158 -249 -158 -629q0 -72 7 -119.5t32 -100.5t55 -96t94 -126q-99 -62 -215 -127q0 215 -28 358q-27 138 -27 250q0 297 135 608q-72 10 -106 10q-118 0 -187 -35.5t-69 -97.5q0 -13 21 -34t32 -21q20 17 51 53q25 -36 25 -67q0 -44 -37.5 -75.5t-91.5 -31.5q-43 0 -82 44
t-39 93q0 117 102 185.5t271 68.5q89 0 157 -14q286 403 787 403q165 33 239 33q142 0 230 -53.5t88 -142.5q0 -60 -26 -83.5t-93 -23.5h-66q39 91 39 107q0 47 -68.5 81.5t-154.5 34.5q-130 0 -237 -73v-449q127 80 409 127q393 27 393 172q0 40 -32 59q-33 20 -33 33
q0 53 65 53q31 0 54.5 -31.5t23.5 -74.5zM1108 580v667q-15 27 -53 27q-97 0 -221 -89.5t-224 -226.5q121 -37 206 -102.5t292 -275.5z" />
    <glyph glyph-name="Oslash" unicode="&#xd8;" horiz-adv-x="1210" 
d="M1139 721q0 -152 -43.5 -285t-119.5 -228t-182.5 -149.5t-228.5 -54.5q-62 0 -114 14q0 -2 -19 -67h-145l35 123q-146 86 -226 244.5t-80 363.5q0 131 42 262.5t113 224.5t151 113q-175 -217 -175 -496q0 -153 59.5 -298.5t162.5 -243.5l299 1061q-50 16 -88 16
q-119 0 -119 -102q0 -19 23 -42.5t42 -23.5q46 19 66 25q0 -86 -23.5 -115t-81.5 -29t-94.5 49.5t-36.5 120.5q0 85 78 147t184 62q28 0 76 -10l19 63h143l-33 -112q316 -166 316 -633zM1022 629q0 167 -65.5 334t-168.5 264l-299 -1069q73 -37 156 -37q164 0 270.5 142.5
t106.5 365.5z" />
    <glyph glyph-name="plusminus" unicode="&#xb1;" horiz-adv-x="1196" 
d="M1096 578h-443v-330h-108v330h-445v108h445v330h108v-330h443v-108zM1096 20h-996v109h996v-109z" />
    <glyph glyph-name="yen" unicode="&#xa5;" horiz-adv-x="1138" 
d="M1133 1409l-396 -623h318v-116h-396v-174h396v-117h-396v-379h-180v379h-393v117h393v174h-393v116h315l-395 623h205l358 -604l359 604h205z" />
    <glyph glyph-name="ordfeminine" unicode="&#xaa;" horiz-adv-x="497" 
d="M475 938l-86 -2q-10 6 -27 63q-53 -77 -157 -77q-86 0 -145.5 51.5t-59.5 142.5q0 77 72 134t170 57q30 0 80 -11q-22 56 -73 101t-108 45q-73 0 -73 -58q0 -32 16 -32q22 3 25 41l34 2q11 -15 11 -37q0 -68 -58 -68q-31 0 -56.5 27t-25.5 59q0 43 46.5 75t109.5 32
q167 0 240 -199q31 -88 65 -346zM367 1122q0 55 -38 90t-96 35q-137 0 -137 -125q0 -46 41 -84.5t90 -38.5q50 0 95 39t45 84z" />
    <glyph glyph-name="ordmasculine" unicode="&#xba;" horiz-adv-x="575" 
d="M545 1217q0 -114 -83 -197.5t-196 -83.5q-112 0 -189 81t-77 200q0 112 84 192t195 80q109 0 187.5 -80t78.5 -192zM477 1174q0 80 -74 162.5t-165 82.5q-53 0 -107.5 -48t-54.5 -101q0 -92 72.5 -178t150.5 -86q69 0 123.5 52.5t54.5 115.5z" />
    <glyph glyph-name="ae" unicode="&#xe6;" horiz-adv-x="1585" 
d="M1546 231q-29 -112 -142 -181.5t-265 -69.5q-62 0 -98 10t-140 55q-65 -56 -65 -104q0 -38 26 -52q27 -15 27 -41v-53q-131 3 -131 107q0 31 28 98h-73q-17 11 -22.5 26t-28.5 99q-95 -145 -289 -145q-164 0 -265.5 93.5t-101.5 245.5q0 87 58 165.5t158.5 126.5
t215.5 48q56 0 158 -24q-31 109 -136 199t-204 90q-63 0 -104 -33.5t-41 -85.5q0 -64 36 -64q26 0 35 15t19 63h55q14 -20 14 -59q0 -113 -96 -113q-54 0 -98.5 46t-44.5 100q0 73 83.5 128.5t192.5 55.5q286 0 418 -326q57 146 168 224.5t260 78.5q134 0 301 -92l-461 -686
q81 -78 226 -78q85 0 139.5 22.5t187.5 110.5zM1257 770q0 49 -52 84t-120 35q-106 0 -197 -111.5t-91 -245.5q0 -76 34.5 -155.5t90.5 -132.5q89 89 212 287t123 239zM674 332q0 102 -72 169.5t-178 67.5q-63 0 -111 -16t-76 -40t-45.5 -57t-23.5 -63t-6 -61q0 -88 78 -161
t172 -73t178 73t84 161z" />
    <glyph glyph-name="oslash" unicode="&#xf8;" horiz-adv-x="1042" 
d="M979 502q0 -134 -67 -249t-182 -183t-249 -68q-38 0 -96 10l-31 -114h-116l41 149q-126 60 -198.5 181.5t-72.5 273.5q0 99 40 188.5t109.5 154.5t170 103.5t215.5 38.5l35 123h114l-41 -145q146 -47 237 -175t91 -288zM874 422q0 95 -78.5 221t-181.5 188l-192 -690
q60 -32 123 -32q122 0 225.5 99t103.5 214zM510 872q-49 11 -82 11q-63 0 -134 -42t-120 -110.5t-49 -136.5q0 -100 53 -202.5t146 -184.5z" />
    <glyph glyph-name="questiondown" unicode="&#xbf;" horiz-adv-x="931" 
d="M655 1483q0 -53 -38.5 -92t-92.5 -39q-48 0 -88.5 41t-40.5 90t40.5 90t88.5 41q55 0 93 -37.5t38 -93.5zM905 256q0 -135 -133.5 -224t-337.5 -89q-171 0 -267.5 80t-96.5 221q0 180 118 301q228 181 274 227q53 52 60 97q2 16 2 40q0 64 -51 156q74 53 117 53
q28 0 46.5 -56.5t18.5 -125.5q0 -124 -120 -244q-48 -43 -228 -192q-121 -121 -121 -256q0 -114 89.5 -188t224.5 -74q67 0 133 27t113 68t76.5 89.5t29.5 89.5q0 37 -43 74t-88 37q-72 0 -72 -70q0 -29 17 -82h-41q-101 0 -101 92q0 57 56.5 94t140.5 37q68 0 126 -57.5
t58 -124.5z" />
    <glyph glyph-name="exclamdown" unicode="&#xa1;" horiz-adv-x="419" 
d="M348 1503q0 -54 -38.5 -92.5t-92.5 -38.5q-48 0 -88.5 39.5t-40.5 91.5q0 117 129 117q55 0 93 -35.5t38 -81.5zM348 1034q-66 -38 -117 -119v-925h-208q56 46 67 65.5t12 79.5v899h246z" />
    <glyph glyph-name="logicalnot" unicode="&#xac;" horiz-adv-x="1196" 
d="M1096 242h-109v428h-887v108h996v-536z" />
    <glyph glyph-name="florin" unicode="&#x192;" horiz-adv-x="591" 
d="M520 1151q-25 0 -49.5 21t-24.5 45q0 16 13 34.5t26 18.5q39 -19 50 -19q8 0 20 4q10 30 10 43q0 37 -59 37q-67 0 -99.5 -80t-62.5 -307q0 -30 11.5 -37.5t56.5 -7.5q93 0 96 -84q-52 8 -107 8q-62 0 -74.5 -10.5t-25.5 -75.5l-156 -735q-38 -185 -147 -311t-238 -137
l25 118q124 74 164 119.5t63 143.5l189 880h-90q-85 0 -91 84q59 -6 97 -6h36t25 7t18.5 13t13.5 29t14 43.5t16 67.5q40 170 109.5 243.5t191.5 73.5q46 0 77 -28t31 -68q0 -49 -46.5 -88t-82.5 -39z" />
    <glyph glyph-name="guillemotleft" unicode="&#xab;" horiz-adv-x="1138" 
d="M930 242l-301 235v180l301 236v-156l-221 -170l221 -170v-155zM510 242l-301 235v180l301 236v-156l-221 -170l221 -170v-155z" />
    <glyph glyph-name="guillemotright" unicode="&#xbb;" horiz-adv-x="1138" 
d="M930 477l-301 -235v155l223 172l-223 168v156l301 -236v-180zM510 477l-301 -235v155l223 172l-223 168v156l301 -236v-180z" />
    <glyph glyph-name="ellipsis" unicode="&#x2026;" horiz-adv-x="1216" 
d="M1167 133q0 -54 -39.5 -93.5t-93.5 -39.5t-92.5 39t-38.5 94t37.5 93t93.5 38q133 0 133 -131zM737 133q0 -54 -39.5 -93.5t-93.5 -39.5t-92.5 39t-38.5 94t37.5 93t93.5 38q133 0 133 -131zM328 133q0 -54 -39.5 -93.5t-93.5 -39.5t-93 39t-39 94t38 93t94 38
q133 0 133 -131z" />
    <glyph glyph-name="nonbreakingspace" unicode="&#xa0;" horiz-adv-x="1024" 
 />
    <glyph glyph-name="Agrave" unicode="&#xc0;" horiz-adv-x="1386" 
d="M1321 0h-266q43 97 52 123t9 59q0 127 -73.5 268t-197.5 258t-265 175q-158 -249 -158 -629q0 -72 7 -119.5t32 -100.5t55 -96t94 -126q-99 -62 -215 -127q0 215 -28 358q-27 138 -27 250q0 297 135 608q-72 10 -106 10q-118 0 -187 -35.5t-69 -97.5q0 -13 21 -34t32 -21
q20 17 51 53q25 -36 25 -67q0 -44 -37.5 -75.5t-91.5 -31.5q-43 0 -82 44t-39 93q0 117 102 185.5t271 68.5q89 0 157 -14q286 403 787 403q-52 -85 -52 -161v-1074q0 -24 9 -44t55 -103zM1108 580v667q-15 27 -53 27q-97 0 -221 -89.5t-224 -226.5q121 -37 206 -102.5
t292 -275.5zM1018 1534l-62 -53q-120 89 -309 192q74 74 109 74q31 0 134.5 -87t127.5 -126z" />
    <glyph glyph-name="Atilde" unicode="&#xc3;" horiz-adv-x="1386" 
d="M1321 0h-266q43 97 52 123t9 59q0 127 -73.5 268t-197.5 258t-265 175q-158 -249 -158 -629q0 -72 7 -119.5t32 -100.5t55 -96t94 -126q-99 -62 -215 -127q0 215 -28 358q-27 138 -27 250q0 297 135 608q-72 10 -106 10q-118 0 -187 -35.5t-69 -97.5q0 -13 21 -34t32 -21
q20 17 51 53q25 -36 25 -67q0 -44 -37.5 -75.5t-91.5 -31.5q-43 0 -82 44t-39 93q0 117 102 185.5t271 68.5q89 0 157 -14q286 403 787 403q-52 -85 -52 -161v-1074q0 -24 9 -44t55 -103zM1108 580v667q-15 27 -53 27q-97 0 -221 -89.5t-224 -226.5q121 -37 206 -102.5
t292 -275.5zM1180 1628q-58 -147 -176 -147q-27 0 -65 11.5t-173 59.5q-48 0 -88 -69l-45 33q35 141 160 141q36 0 131 -39q79 -31 116 -31q61 0 95 70z" />
    <glyph glyph-name="Otilde" unicode="&#xd5;" horiz-adv-x="1210" 
d="M1139 696q0 -202 -74 -366t-205.5 -257t-294.5 -93q-113 0 -214 50.5t-175 138.5t-117 215t-43 273q0 131 42 262.5t113 224.5t151 113q-175 -217 -175 -495q0 -173 69 -327t184.5 -246.5t244.5 -92.5q164 0 270.5 142.5t106.5 365.5q0 175 -62.5 336t-165.5 258.5
t-214 97.5q-119 0 -119 -102q0 -19 23 -42.5t42 -23.5q46 19 66 25q0 -86 -23.5 -114.5t-81.5 -28.5t-94.5 49.5t-36.5 120.5q0 85 78 147t184 62q145 0 264 -89.5t188 -248.5t69 -355zM872 1628q-58 -147 -176 -147q-27 0 -64 11.5t-173 59.5q-48 0 -88 -69l-45 33
q34 141 159 141q36 0 131 -39q79 -31 117 -31q60 0 94 70z" />
    <glyph glyph-name="OE" unicode="&#x152;" horiz-adv-x="2113" 
d="M2073 1151q0 -94 -52.5 -156t-172 -109.5t-339.5 -94.5q-275 -58 -370 -105q-3 -174 -70 -336q84 -121 206 -197.5t228 -76.5q54 0 149.5 26.5t131.5 53.5q80 59 92 206q44 -26 53.5 -41t12.5 -63q0 -69 -63.5 -133.5t-167.5 -104.5t-216 -40q-320 0 -500 235
q-162 -235 -430 -235q-113 0 -214 50.5t-175 138.5t-117 215t-43 273q0 131 42 262.5t113 224.5t151 113q-175 -217 -175 -495q0 -173 69 -327t184.5 -246.5t244.5 -92.5q164 0 270.5 142.5t106.5 365.5q0 175 -62.5 336t-165.5 258.5t-214 97.5q-119 0 -119 -102
q0 -19 23 -42.5t42 -23.5q46 19 66 25q0 -86 -23.5 -114.5t-81.5 -28.5t-94.5 49.5t-36.5 120.5q0 85 78 147t184 62q92 0 200.5 -58.5t180.5 -152.5q191 237 482 237q142 0 229.5 -53.5t87.5 -142.5q0 -60 -26 -83.5t-93 -23.5h-65q39 91 39 107q0 47 -68.5 81.5
t-154.5 34.5q-240 0 -383 -229q75 -132 90 -332q152 113 465 166q393 27 393 172q0 39 -33 59t-33 33q0 53 66 53q31 0 54.5 -31.5t23.5 -74.5z" />
    <glyph glyph-name="oe" unicode="&#x153;" horiz-adv-x="1654" 
d="M1608 250q-29 -112 -142.5 -182t-265.5 -70q-62 0 -97 10t-140 55q-66 -54 -66 -104q0 -36 27 -51q26 -14 26 -41v-53q-131 3 -131 106q0 27 11.5 56t66.5 141q0 8 -43 57q-150 -172 -373 -172q-204 0 -338.5 145t-134.5 355q0 127 69 239.5t184.5 180t244.5 67.5
q220 0 364 -176q133 160 344 160q135 0 302 -92l-461 -686q81 -78 225 -78q86 0 140.5 23t187.5 110zM1319 788q0 49 -52 84t-120 35q-69 0 -136.5 -51t-110 -134t-42.5 -171q0 -76 34.5 -156t90.5 -133q89 89 212.5 287t123.5 239zM805 246q-53 100 -53 239q0 98 32 177
q-141 221 -356 221q-63 0 -134 -42t-120 -110.5t-49 -136.5q0 -111 63.5 -225t162 -187t194.5 -73q153 0 260 137z" />
    <glyph glyph-name="endash" unicode="&#x2013;" horiz-adv-x="1138" 
d="M1118 512h-1098v109h1098v-109z" />
    <glyph glyph-name="emdash" unicode="&#x2014;" horiz-adv-x="2048" 
d="M2028 512h-2008v109h2008v-109z" />
    <glyph glyph-name="quotedblleft" unicode="&#x201c;" horiz-adv-x="694" 
d="M666 1137q0 -60 -38.5 -103t-92.5 -43q-144 0 -144 185q0 122 117 210h92q-52 -41 -61 -54.5t-11 -49.5q138 -50 138 -145zM297 1137q0 -60 -38.5 -103t-92.5 -43q-143 0 -143 185q0 122 116 210h92q-51 -40 -60 -54t-11 -50q137 -49 137 -145z" />
    <glyph glyph-name="quotedblright" unicode="&#x201d;" horiz-adv-x="694" 
d="M666 1196q0 -122 -117 -211h-92q50 39 60 53t11 52q-137 49 -137 145q0 58 39 101.5t92 43.5q144 0 144 -184zM297 1196q0 -122 -117 -211h-92q51 39 61 53t11 52q-137 49 -137 145q0 58 39 101.5t92 43.5q143 0 143 -184z" />
    <glyph glyph-name="quoteleft" unicode="&#x2018;" horiz-adv-x="380" 
d="M338 1137q0 -60 -38.5 -103t-92.5 -43q-144 0 -144 185q0 122 117 210h92q-51 -40 -60 -54t-11 -50q137 -49 137 -145z" />
    <glyph glyph-name="quoteright" unicode="&#x2019;" horiz-adv-x="380" 
d="M334 1204q0 -122 -117 -211h-92q51 39 61 53t11 52q-138 50 -138 145q0 59 39.5 102.5t91.5 43.5q144 0 144 -185z" />
    <glyph glyph-name="divide" unicode="&#xf7;" horiz-adv-x="1196" 
d="M717 934q0 -47 -36 -83t-83 -36q-50 0 -84.5 34.5t-34.5 84.5t34.5 84.5t84.5 34.5q51 0 85 -34t34 -85zM1096 463h-996v108h996v-108zM717 100q0 -47 -36 -82.5t-83 -35.5q-50 0 -84.5 34.5t-34.5 83.5q0 50 34.5 84.5t84.5 34.5q51 0 85 -34t34 -85z" />
    <glyph glyph-name="ydieresis" unicode="&#xff;" 
d="M844 948q-76 -101 -76 -110q6 -44 7 -88.5t3 -264.5q0 -370 -22 -509.5t-99 -233.5q-101 -125 -313 -125q-63 0 -104 30t-41 74q0 48 125 78q4 -34 6 -49.5t8 -32t9 -21t16.5 -9t23 -4.5h35.5q75 0 120 38.5t103 155.5v236l-12 26q-126 -93 -165.5 -111t-123.5 -18
q-149 0 -238.5 111.5t-89.5 294.5q0 78 18 137.5t99 255.5q-14 5 -98 53q111 52 231 78q-3 -46 -69 -188q-64 -137 -64 -297q0 -146 79.5 -244t197.5 -98q97 0 166 73t69 176v474q0 21 -10 38.5t-53 73.5q105 10 141 17q34 0 121 -17zM694 1210q0 -41 -29.5 -70.5
t-72.5 -29.5t-73 29.5t-30 70.5t31 72t72 31t71.5 -31t30.5 -72zM371 1210q0 -41 -30 -70.5t-73 -29.5t-72.5 29.5t-29.5 70.5t30.5 72t71.5 31t72 -31t31 -72z" />
    <glyph glyph-name="Ydieresis" unicode="&#x178;" horiz-adv-x="1107" 
d="M1042 1397q0 -304 -39.5 -634.5t-105.5 -584.5q-59 -221 -166.5 -354t-228.5 -133q-65 0 -111.5 45.5t-46.5 111.5q0 33 16 33q77 -40 96.5 -48.5t32.5 -8.5q116 0 230 170q106 155 106 303q-145 -83 -191 -101t-118 -18q-105 0 -190 67t-132 182t-47 253q0 113 26 197
t132 335q-86 11 -108 11q-62 -4 -64 -4q-30 28 -35 28q-18 0 -30 -69q38 -15 65 -39q-39 -39 -65 -39q-15 0 -34.5 28t-19.5 50q0 21 4 38.5t14.5 31.5t21 24.5t31 18.5t37 13.5t47 9t52 5.5t61 3t66 1h74.5q-86 -182 -114.5 -286.5t-28.5 -239.5q0 -222 86.5 -347.5
t240.5 -125.5q152 0 248 172t96 446q0 86 -21.5 160.5t-90.5 247.5q129 34 204 47z" />
    <glyph glyph-name="currency" unicode="&#xa4;" horiz-adv-x="1138" 
d="M1081 1137l-112 -111q102 -117 102 -307q0 -183 -102 -309l110 -115l-92 -92l-113 119q-119 -113 -305 -113t-305 113l-112 -119l-93 92l111 115q-102 126 -102 309q0 190 102 307l-113 111l99 98l116 -115q120 105 297 105t297 -105l117 115zM922 719q0 149 -104 255.5
t-249 106.5q-146 0 -249 -106t-103 -256q0 -152 103 -259.5t249 -107.5q145 0 249 108t104 259z" />
    <glyph glyph-name="guilsinglleft" unicode="&#x2039;" horiz-adv-x="681" 
d="M492 242l-302 235v180l302 236v-156l-222 -170l222 -170v-155z" />
    <glyph glyph-name="guilsinglright" unicode="&#x203a;" horiz-adv-x="681" 
d="M492 477l-302 -235v155l224 172l-224 168v156l302 -236v-180z" />
    <glyph glyph-name="daggerdbl" unicode="&#x2021;" horiz-adv-x="1138" 
d="M1032 109h-385v-414h-151v414h-387v114h387v697h-387v114h387v416h151v-416h385v-114h-385v-697h385v-114z" />
    <glyph glyph-name="periodcentered" unicode="&#xb7;" horiz-adv-x="354" 
d="M307 788q0 -54 -39.5 -93.5t-93.5 -39.5t-92.5 39t-38.5 94q0 56 38 94t93 38q133 0 133 -132z" />
    <glyph glyph-name="quotesinglbase" unicode="&#x201a;" horiz-adv-x="380" 
d="M297 86q0 -122 -117 -211h-92q51 39 61 53t11 52q-137 49 -137 145q0 58 39 101.5t92 43.5q143 0 143 -184z" />
    <glyph glyph-name="quotedblbase" unicode="&#x201e;" horiz-adv-x="694" 
d="M666 86q0 -122 -117 -211h-92q50 39 60 53t11 52q-137 49 -137 145q0 58 39 101.5t92 43.5q144 0 144 -184zM297 86q0 -122 -117 -211h-92q51 39 61 53t11 52q-137 49 -137 145q0 58 39 101.5t92 43.5q143 0 143 -184z" />
    <glyph glyph-name="perthousand" unicode="&#x2030;" horiz-adv-x="1536" 
d="M1489 229q0 -100 -64.5 -164.5t-164.5 -64.5q-73 0 -127.5 37.5t-78.5 88.5t-24 103q0 100 66.5 165t163.5 65q100 0 164.5 -65t64.5 -165zM524 1049q0 -100 -64.5 -165t-164.5 -65t-164.5 66.5t-64.5 163.5q0 100 66 164.5t163 64.5q100 0 164.5 -64.5t64.5 -164.5z
M956 1278l-739 -1278h-151l739 1278h151zM956 229q0 -100 -64.5 -164.5t-164.5 -64.5q-73 0 -127.5 37.5t-78 88.5t-23.5 103q0 100 66 165t163 65q100 0 164.5 -65t64.5 -165zM1358 229q0 41 -28.5 70t-69.5 29t-70 -29t-29 -70q0 -43 28 -70.5t71 -27.5q44 0 71 27.5
t27 70.5zM393 1049q0 41 -28.5 69.5t-69.5 28.5t-69.5 -28.5t-28.5 -69.5q0 -43 27.5 -71t70.5 -28q44 0 71 28t27 71zM825 229q0 41 -28.5 70t-69.5 29t-69.5 -29t-28.5 -70q0 -43 27.5 -70.5t70.5 -27.5q44 0 71 27.5t27 70.5z" />
    <glyph glyph-name="Acircumflex" unicode="&#xc2;" horiz-adv-x="1386" 
d="M1321 0h-266q43 97 52 123t9 59q0 127 -73.5 268t-197.5 258t-265 175q-158 -249 -158 -629q0 -72 7 -119.5t32 -100.5t55 -96t94 -126q-99 -62 -215 -127q0 215 -28 358q-27 138 -27 250q0 297 135 608q-72 10 -106 10q-118 0 -187 -35.5t-69 -97.5q0 -13 21 -34t32 -21
q20 17 51 53q25 -36 25 -67q0 -44 -37.5 -75.5t-91.5 -31.5q-43 0 -82 44t-39 93q0 117 102 185.5t271 68.5q89 0 157 -14q286 403 787 403q-52 -85 -52 -161v-1074q0 -24 9 -44t55 -103zM1108 580v667q-15 27 -53 27q-97 0 -221 -89.5t-224 -226.5q121 -37 206 -102.5
t292 -275.5zM1268 1548q-61 -67 -101 -67q-112 0 -231 104q-119 -104 -231 -104q-40 0 -101 67q168 27 332 191q164 -164 332 -191z" />
    <glyph glyph-name="Ecircumflex" unicode="&#xca;" horiz-adv-x="1294" 
d="M1260 1151q0 -195 -277 -287q-383 -92 -512 -125q-276 -77 -276 -233q0 -64 49 -141t121.5 -140t161.5 -106t163 -43q51 0 148 26.5t135 53.5q78 60 90 206q44 -26 53 -41t12 -63q0 -69 -63 -133.5t-167 -104.5t-216 -40q-291 0 -474 198t-183 512q0 152 49.5 286.5
t135 231t204.5 152t254 55.5q142 0 229.5 -53.5t87.5 -142.5q0 -60 -26 -83.5t-93 -23.5h-65q39 91 39 107q0 47 -69 81.5t-155 34.5q-194 0 -321.5 -144t-149.5 -392q0 -59 13 -148q42 30 119 86.5t104 75.5q135 81 407 127q394 27 394 172q0 39 -33 59t-33 33q0 53 66 53
q31 0 54.5 -31.5t23.5 -74.5zM940 1548q-61 -67 -100 -67q-113 0 -232 104q-119 -104 -231 -104q-40 0 -101 67q168 27 332 191q164 -164 332 -191z" />
    <glyph glyph-name="Aacute" unicode="&#xc1;" horiz-adv-x="1386" 
d="M1321 0h-266q43 97 52 123t9 59q0 127 -73.5 268t-197.5 258t-265 175q-158 -249 -158 -629q0 -72 7 -119.5t32 -100.5t55 -96t94 -126q-99 -62 -215 -127q0 215 -28 358q-27 138 -27 250q0 297 135 608q-72 10 -106 10q-118 0 -187 -35.5t-69 -97.5q0 -13 21 -34t32 -21
q20 17 51 53q25 -36 25 -67q0 -44 -37.5 -75.5t-91.5 -31.5q-43 0 -82 44t-39 93q0 117 102 185.5t271 68.5q89 0 157 -14q286 403 787 403q-52 -85 -52 -161v-1074q0 -24 9 -44t55 -103zM1108 580v667q-15 27 -53 27q-97 0 -221 -89.5t-224 -226.5q121 -37 206 -102.5
t292 -275.5zM1247 1669q-189 -103 -309 -192l-61 53q24 39 127.5 126t134.5 87q34 0 108 -74z" />
    <glyph glyph-name="Edieresis" unicode="&#xcb;" horiz-adv-x="1294" 
d="M1260 1151q0 -195 -277 -287q-383 -92 -512 -125q-276 -77 -276 -233q0 -64 49 -141t121.5 -140t161.5 -106t163 -43q51 0 148 26.5t135 53.5q78 60 90 206q44 -26 53 -41t12 -63q0 -69 -63 -133.5t-167 -104.5t-216 -40q-291 0 -474 198t-183 512q0 152 49.5 286.5
t135 231t204.5 152t254 55.5q142 0 229.5 -53.5t87.5 -142.5q0 -60 -26 -83.5t-93 -23.5h-65q39 91 39 107q0 47 -69 81.5t-155 34.5q-194 0 -321.5 -144t-149.5 -392q0 -59 13 -148q42 30 119 86.5t104 75.5q135 81 407 127q394 27 394 172q0 39 -33 59t-33 33q0 53 66 53
q31 0 54.5 -31.5t23.5 -74.5zM928 1583q0 -41 -30 -70.5t-73 -29.5t-72.5 29.5t-29.5 70.5t30.5 72t71.5 31t72 -31t31 -72zM604 1583q0 -41 -29.5 -70.5t-72.5 -29.5t-73 29.5t-30 70.5t31 72t72 31t71.5 -31t30.5 -72z" />
    <glyph glyph-name="Egrave" unicode="&#xc8;" horiz-adv-x="1294" 
d="M1260 1151q0 -195 -277 -287q-383 -92 -512 -125q-276 -77 -276 -233q0 -64 49 -141t121.5 -140t161.5 -106t163 -43q51 0 148 26.5t135 53.5q78 60 90 206q44 -26 53 -41t12 -63q0 -69 -63 -133.5t-167 -104.5t-216 -40q-291 0 -474 198t-183 512q0 152 49.5 286.5
t135 231t204.5 152t254 55.5q142 0 229.5 -53.5t87.5 -142.5q0 -60 -26 -83.5t-93 -23.5h-65q39 91 39 107q0 47 -69 81.5t-155 34.5q-194 0 -321.5 -144t-149.5 -392q0 -59 13 -148q42 30 119 86.5t104 75.5q135 81 407 127q394 27 394 172q0 39 -33 59t-33 33q0 53 66 53
q31 0 54.5 -31.5t23.5 -74.5zM731 1534l-61 -53q-117 87 -310 192q74 74 109 74q31 0 134.5 -87t127.5 -126z" />
    <glyph glyph-name="Iacute" unicode="&#xcd;" horiz-adv-x="399" 
d="M311 0h-288q69 107 69 119v1145q0 9 -69 112h262q-47 -66 -56.5 -83.5t-9.5 -37.5v-1118q18 -22 92 -137zM346 1669q-189 -103 -309 -192l-62 53q24 39 127.5 126t135.5 87q34 0 108 -74z" />
    <glyph glyph-name="Icircumflex" unicode="&#xce;" horiz-adv-x="399" 
d="M311 0h-288q69 107 69 119v1145q0 9 -69 112h262q-47 -66 -56.5 -83.5t-9.5 -37.5v-1118q18 -22 92 -137zM504 1548q-61 -67 -101 -67q-112 0 -231 104q-119 -104 -231 -104q-40 0 -101 67q168 27 332 191q164 -164 332 -191z" />
    <glyph glyph-name="Idieresis" unicode="&#xcf;" horiz-adv-x="399" 
d="M311 0h-288q69 107 69 119v1145q0 9 -69 112h262q-47 -66 -56.5 -83.5t-9.5 -37.5v-1118q18 -22 92 -137zM420 1579q0 -41 -30 -70.5t-73 -29.5t-72.5 29.5t-29.5 70.5t30.5 71.5t71.5 30.5t72 -30.5t31 -71.5zM96 1579q0 -41 -29.5 -70.5t-72.5 -29.5t-73 29.5t-30 70.5
t31 71.5t72 30.5t71.5 -30.5t30.5 -71.5z" />
    <glyph glyph-name="Igrave" unicode="&#xcc;" horiz-adv-x="399" 
d="M311 0h-288q69 107 69 119v1145q0 9 -69 112h262q-47 -66 -56.5 -83.5t-9.5 -37.5v-1118q18 -22 92 -137zM342 1534l-61 -53q-117 87 -310 192q74 74 109 74q31 0 134.5 -87t127.5 -126z" />
    <glyph glyph-name="Oacute" unicode="&#xd3;" horiz-adv-x="1210" 
d="M1139 696q0 -202 -74 -366t-205.5 -257t-294.5 -93q-113 0 -214 50.5t-175 138.5t-117 215t-43 273q0 131 42 262.5t113 224.5t151 113q-175 -217 -175 -495q0 -173 69 -327t184.5 -246.5t244.5 -92.5q164 0 270.5 142.5t106.5 365.5q0 175 -62.5 336t-165.5 258.5
t-214 97.5q-119 0 -119 -102q0 -19 23 -42.5t42 -23.5q46 19 66 25q0 -86 -23.5 -114.5t-81.5 -28.5t-94.5 49.5t-36.5 120.5q0 85 78 147t184 62q145 0 264 -89.5t188 -248.5t69 -355zM797 1669q-193 -105 -310 -192l-61 53q24 39 127.5 126t134.5 87q35 0 109 -74z" />
    <glyph glyph-name="Ocircumflex" unicode="&#xd4;" horiz-adv-x="1210" 
d="M1139 696q0 -202 -74 -366t-205.5 -257t-294.5 -93q-113 0 -214 50.5t-175 138.5t-117 215t-43 273q0 131 42 262.5t113 224.5t151 113q-175 -217 -175 -495q0 -173 69 -327t184.5 -246.5t244.5 -92.5q164 0 270.5 142.5t106.5 365.5q0 175 -62.5 336t-165.5 258.5
t-214 97.5q-119 0 -119 -102q0 -19 23 -42.5t42 -23.5q46 19 66 25q0 -86 -23.5 -114.5t-81.5 -28.5t-94.5 49.5t-36.5 120.5q0 85 78 147t184 62q145 0 264 -89.5t188 -248.5t69 -355zM940 1548q-61 -67 -100 -67q-113 0 -232 104q-119 -104 -231 -104q-40 0 -101 67
q168 27 332 191q164 -164 332 -191z" />
    <glyph glyph-name="Ograve" unicode="&#xd2;" horiz-adv-x="1210" 
d="M1139 696q0 -202 -74 -366t-205.5 -257t-294.5 -93q-113 0 -214 50.5t-175 138.5t-117 215t-43 273q0 131 42 262.5t113 224.5t151 113q-175 -217 -175 -495q0 -173 69 -327t184.5 -246.5t244.5 -92.5q164 0 270.5 142.5t106.5 365.5q0 175 -62.5 336t-165.5 258.5
t-214 97.5q-119 0 -119 -102q0 -19 23 -42.5t42 -23.5q46 19 66 25q0 -86 -23.5 -114.5t-81.5 -28.5t-94.5 49.5t-36.5 120.5q0 85 78 147t184 62q145 0 264 -89.5t188 -248.5t69 -355zM731 1534l-61 -53q-117 87 -310 192q74 74 109 74q31 0 134.5 -87t127.5 -126z" />
    <glyph glyph-name="Uacute" unicode="&#xda;" horiz-adv-x="1210" 
d="M1184 98q-34 -104 -129 -104q-42 0 -68 25t-98 131q-177 -117 -235 -143.5t-152 -26.5q-136 0 -248.5 77.5t-177 214t-64.5 301.5q0 145 54.5 267.5t185.5 275.5q108 121 129 166h-49q-40 0 -73 8t-140 45q-13 0 -27 -14.5t-14 -28.5q0 -18 22 -18q21 0 45 8q9 -27 9 -47
q0 -24 -15 -38.5t-39 -14.5q-61 0 -61 88q0 58 51.5 100.5t120.5 42.5q184 -47 197 -47q24 0 67 16q32 11 109 11q-9 -27 -125 -158q-161 -184 -231 -329t-70 -294q0 -141 56 -259.5t153 -186.5t213 -68q38 0 113.5 33t138.5 81t63 83v711q0 141 -6.5 208t-20.5 100t-51 81
q52 8 277 8q-44 -44 -55 -76.5t-11 -122.5v-870q0 -121 38 -178.5t118 -57.5zM920 1669q-193 -105 -310 -192l-61 53q24 39 127.5 126t134.5 87q35 0 109 -74z" />
    <glyph glyph-name="Ucircumflex" unicode="&#xdb;" horiz-adv-x="1210" 
d="M1184 98q-34 -104 -129 -104q-42 0 -68 25t-98 131q-177 -117 -235 -143.5t-152 -26.5q-136 0 -248.5 77.5t-177 214t-64.5 301.5q0 145 54.5 267.5t185.5 275.5q108 121 129 166h-49q-40 0 -73 8t-140 45q-13 0 -27 -14.5t-14 -28.5q0 -18 22 -18q21 0 45 8q9 -27 9 -47
q0 -24 -15 -38.5t-39 -14.5q-61 0 -61 88q0 58 51.5 100.5t120.5 42.5q184 -47 197 -47q24 0 67 16q32 11 109 11q-9 -27 -125 -158q-161 -184 -231 -329t-70 -294q0 -141 56 -259.5t153 -186.5t213 -68q38 0 113.5 33t138.5 81t63 83v711q0 141 -6.5 208t-20.5 100t-51 81
q52 8 277 8q-44 -44 -55 -76.5t-11 -122.5v-870q0 -121 38 -178.5t118 -57.5zM1001 1548q-61 -67 -100 -67q-112 0 -231 104q-119 -104 -232 -104q-39 0 -100 67q168 27 332 191q164 -164 331 -191z" />
    <glyph glyph-name="Ugrave" unicode="&#xd9;" horiz-adv-x="1210" 
d="M1184 98q-34 -104 -129 -104q-42 0 -68 25t-98 131q-177 -117 -235 -143.5t-152 -26.5q-136 0 -248.5 77.5t-177 214t-64.5 301.5q0 145 54.5 267.5t185.5 275.5q108 121 129 166h-49q-40 0 -73 8t-140 45q-13 0 -27 -14.5t-14 -28.5q0 -18 22 -18q21 0 45 8q9 -27 9 -47
q0 -24 -15 -38.5t-39 -14.5q-61 0 -61 88q0 58 51.5 100.5t120.5 42.5q184 -47 197 -47q24 0 67 16q32 11 109 11q-9 -27 -125 -158q-161 -184 -231 -329t-70 -294q0 -141 56 -259.5t153 -186.5t213 -68q38 0 113.5 33t138.5 81t63 83v711q0 141 -6.5 208t-20.5 100t-51 81
q52 8 277 8q-44 -44 -55 -76.5t-11 -122.5v-870q0 -121 38 -178.5t118 -57.5zM768 1534l-61 -53q-117 87 -310 192q74 74 109 74q31 0 134.5 -87t127.5 -126z" />
    <glyph glyph-name="circumflex" unicode="&#x2c6;" horiz-adv-x="681" 
d="M674 1067q-62 -68 -101 -68q-111 0 -231 105q-120 -105 -231 -105q-39 0 -101 68q169 27 332 190q163 -163 332 -190z" />
    <glyph glyph-name="tilde" unicode="&#x2dc;" horiz-adv-x="681" 
d="M586 1196q-58 -162 -189 -162q-34 0 -69 10.5t-168 61.5q-42 0 -86 -74l-60 43q40 156 172 156q45 0 136 -39q79 -31 112 -31q56 0 90 76z" />
    <glyph glyph-name="macron" unicode="&#xaf;" horiz-adv-x="681" 
d="M641 1305h-600v75h600v-75z" />
    <glyph glyph-name="cedilla" unicode="&#xb8;" horiz-adv-x="688" 
d="M532 -113q0 -82 -66.5 -136t-166.5 -54q-107 0 -207 65l19 68q54 -22 77 -29t56 -8q121 0 121 109q0 61 -158 67l53 176h131l-31 -106q169 -17 172 -152z" />
    <glyph glyph-name="Scaron" unicode="&#x160;" horiz-adv-x="1155" 
d="M1090 494q0 -45 -6 -89.5t-23 -96.5t-43.5 -97.5t-71 -88.5t-102 -74t-140.5 -49.5t-182 -18.5q-232 0 -372 107.5t-140 287.5q0 130 115 222.5t278 92.5q138 0 234 -65.5t96 -169.5q0 -91 -64 -145t-171 -54q-77 0 -138 36.5t-61 82.5q0 77 98 104q24 -133 101 -133
q49 0 88 37.5t39 83.5q0 73 -71 122.5t-175 49.5q-126 0 -215.5 -81t-89.5 -198q0 -80 43.5 -144.5t113 -103t149 -59t157.5 -20.5q120 0 223 53t163 144t60 198q0 175 -195 311q-61 34 -180 100.5t-180 100.5q-195 115 -195 238q0 91 101 158t241 67q128 0 209.5 -45
t81.5 -115q0 -28 -30 -46.5t-76 -18.5q-12 0 -12 16q0 8 6 61q0 107 -191 107q-91 0 -158 -38.5t-67 -92.5q0 -85 194 -180q173 -84 273 -142.5t168 -124t92.5 -131.5t24.5 -159zM932 1671q-169 -27 -332 -190q-163 163 -332 190q62 68 101 68q111 0 231 -105
q120 105 231 105q39 0 101 -68z" />
    <glyph glyph-name="scaron" unicode="&#x161;" horiz-adv-x="866" 
d="M799 330q0 -94 -66.5 -174.5t-181 -128t-248.5 -47.5q-142 0 -215.5 62.5t-73.5 170.5q0 77 67.5 136t156.5 59q196 0 196 -121q0 -44 -11.5 -63.5t-53.5 -49.5h-105q6 16 39 78q0 65 -106 65q-60 0 -102 -38t-42 -93q0 -61 68 -97t182 -36q167 0 279 71.5t112 178.5
q0 114 -162 160q-50 11 -151.5 32t-151.5 33q-161 55 -161 193q0 109 106 178.5t272 69.5q248 0 248 -156q0 -44 -53.5 -81.5t-116.5 -37.5q-129 0 -129 107q0 22 7.5 30.5t50.5 34.5q38 -62 71 -65q19 0 36.5 21t17.5 44q0 28 -42.5 47t-101.5 19q-111 0 -193.5 -50
t-82.5 -120q0 -64 66.5 -91t408.5 -106q166 -70 166 -235zM748 1309q-168 -27 -332 -191q-164 164 -332 191q61 67 100 67q113 0 232 -104q119 104 231 104q40 0 101 -67z" />
    <glyph glyph-name="brokenbar" unicode="&#xa6;" horiz-adv-x="532" 
d="M342 942h-149v567h149v-567zM342 -39h-149v602h149v-602z" />
    <glyph glyph-name="Eth" unicode="&#xd0;" horiz-adv-x="1331" 
d="M1257 748q0 -511 -589 -687q-68 -18 -267 -63h-131q46 43 61.5 130.5t16.5 322.5h-178v143l178 2q-197 48 -268.5 117.5t-71.5 220.5q0 96 37.5 180t108 149.5t182 103.5t250.5 38q141 0 265.5 -50.5t213.5 -137.5t140.5 -209t51.5 -260zM1085 762q0 260 -142 419.5
t-370 159.5q-213 0 -363.5 -112.5t-150.5 -270.5q0 -125 81.5 -212t176.5 -87h29q0 226 -5.5 297.5t-29.5 106.5q0 26 48 52.5t122 41.5q-32 -54 -32 -221q0 -113 16 -260q96 15 169 70.5t73 113.5q0 41 -31 47h-76q27 105 90 105q113 0 113 -146q0 -183 -299 -272h108v-143
h-157v-218q2 0 2 33q0 -84 -17 -174q311 44 476.5 217.5t168.5 452.5z" />
    <glyph glyph-name="eth" unicode="&#xf0;" horiz-adv-x="1138" 
d="M1057 520q0 -250 -137 -398.5t-357 -148.5q-227 0 -358 146t-131 399q0 249 121.5 396.5t328.5 148.5q60 0 100.5 -11t112.5 -48q-67 124 -141 213l-277 -125l-43 102l238 106q-95 92 -207 166h217q94 -72 127 -102l215 102l43 -102l-172 -84q320 -367 320 -760zM870 528
q0 185 -90.5 290.5t-220.5 105.5q-140 0 -221 -110t-82 -302q0 -183 81 -286t226 -103q141 0 224 109.5t83 295.5z" />
    <glyph glyph-name="Yacute" unicode="&#xdd;" horiz-adv-x="1107" 
d="M1042 1397q0 -304 -39.5 -634.5t-105.5 -584.5q-59 -221 -166.5 -354t-228.5 -133q-65 0 -111.5 45.5t-46.5 111.5q0 33 16 33q77 -40 96.5 -48.5t32.5 -8.5q116 0 230 170q106 155 106 303q-145 -83 -191 -101t-118 -18q-105 0 -190 67t-132 182t-47 253q0 113 26 197
t132 335q-86 11 -108 11q-62 -4 -64 -4q-30 28 -35 28q-18 0 -30 -69q38 -15 65 -39q-39 -39 -65 -39q-15 0 -34.5 28t-19.5 50q0 21 4 38.5t14.5 31.5t21 24.5t31 18.5t37 13.5t47 9t52 5.5t61 3t66 1h74.5q-86 -182 -114.5 -286.5t-28.5 -239.5q0 -222 86.5 -347.5
t240.5 -125.5q152 0 248 172t96 446q0 86 -21.5 160.5t-90.5 247.5q129 34 204 47zM838 1669q-193 -105 -310 -192l-61 53q24 39 127.5 126t134.5 87q35 0 109 -74z" />
    <glyph glyph-name="yacute" unicode="&#xfd;" 
d="M844 948q-76 -101 -76 -110q6 -44 7 -88.5t3 -264.5q0 -370 -22 -509.5t-99 -233.5q-101 -125 -313 -125q-63 0 -104 30t-41 74q0 48 125 78q4 -34 6 -49.5t8 -32t9 -21t16.5 -9t23 -4.5h35.5q75 0 120 38.5t103 155.5v236l-12 26q-126 -93 -165.5 -111t-123.5 -18
q-149 0 -238.5 111.5t-89.5 294.5q0 78 18 137.5t99 255.5q-14 5 -98 53q111 52 231 78q-3 -46 -69 -188q-64 -137 -64 -297q0 -146 79.5 -244t197.5 -98q97 0 166 73t69 176v474q0 21 -10 38.5t-53 73.5q105 10 141 17q34 0 121 -17zM653 1300q-189 -103 -309 -192l-61 53
q24 39 127.5 126t134.5 87q34 0 108 -74z" />
    <glyph glyph-name="Thorn" unicode="&#xde;" horiz-adv-x="1368" 
d="M1257 743q0 -213 -131 -318.5t-399 -105.5h-393v-299h-154v1426h154v-299h379q190 0 289 -30.5t165 -108.5q87 -100 90 -265zM1098 745q0 91 -51.5 162t-133.5 94q-49 15 -186 15h-393v-565h399q183 0 273.5 72.5t91.5 221.5z" />
    <glyph glyph-name="thorn" unicode="&#xfe;" horiz-adv-x="1138" 
d="M1036 539q0 -73 -16.5 -148t-52.5 -146.5t-86.5 -127t-124.5 -89.5t-160 -34q-85 0 -148.5 35.5t-152.5 132.5v-549h-139v1833h139v-547q95 98 158.5 132t152.5 34q186 0 308 -149t122 -377zM893 541q0 195 -82 309.5t-221 114.5q-140 0 -225.5 -121.5t-85.5 -319.5
q0 -192 82.5 -306t220.5 -114q76 0 134 31.5t90.5 77.5t53 108.5t27 114.5t6.5 105z" />
    <glyph glyph-name="multiply" unicode="&#xd7;" horiz-adv-x="1196" 
d="M1087 104l-75 -75l-412 411l-416 -411l-75 75l415 414l-415 414l77 76l412 -410l414 410l75 -76l-409 -412z" />
    <glyph glyph-name="onesuperior" unicode="&#xb9;" horiz-adv-x="241" 
d="M199 825q0 -9 -30 -26t-50 -17q-10 0 -21 23t-19.5 72t-8.5 108q0 99 49 363q-65 0 -68 8h-35v37q6 0 31 10q54 0 72 35q18 38 67 41l7 -15q-34 -212 -40 -260t-6 -123q0 -53 10 -115.5t22.5 -102.5t19.5 -40v2z" />
    <glyph glyph-name="twosuperior" unicode="&#xb2;" horiz-adv-x="477" 
d="M428 885q-15 -62 -37 -109q-89 23 -182 23q-31 0 -205 -17q39 112 197 267q133 133 133 243q0 68 -41 110t-107 42q-47 0 -81.5 -30t-34.5 -73q0 -67 51 -67q19 0 53 37q16 -32 16 -37q0 -3 -2.5 -8.5t-3.5 -5.5v4q0 -72 -69 -72q-43 0 -71 33.5t-28 87.5q0 71 59 117.5
t148 46.5q92 0 147.5 -52.5t55.5 -138.5q0 -73 -45.5 -132.5t-185.5 -176.5q-88 -70 -101 -119q62 12 334 27z" />
    <glyph glyph-name="threesuperior" unicode="&#xb3;" horiz-adv-x="518" 
d="M487 1044q0 -104 -95.5 -186t-215.5 -82q-78 0 -124 34t-46 91q0 29 20 49.5t48 20.5q35 0 46 -14.5t21 -61.5q-28 4 -35 4q-16 0 -16 -8v-6q-22 0 -22 -13q0 -22 30.5 -41.5t63.5 -19.5q90 0 162.5 71t72.5 156q0 59 -43 101.5t-110 42.5q-33 0 -138 -31q1 20 36 57
t196 193h-176q-29 0 -43.5 -5t-50.5 -24q-12 0 -30 24.5t-18 39.5q0 5 21 16t61 22t82 11q18 0 174 -23q5 0 56 13q19 0 43 -15l-205 -215q25 -7 78 -22.5t78 -22.5q79 -40 79 -156z" />
    <glyph glyph-name="onehalf" unicode="&#xbd;" horiz-adv-x="962" 
d="M201 834q0 -7 -29 -25t-49 -18t-34.5 61t-14.5 141q0 103 49 361q-65 0 -68 8q-33 0 -37 4v37q20 0 58 14.5t45 28.5q18 38 69 41l5 -14q-33 -205 -39 -255.5t-6 -127.5q0 -53 10 -115.5t22 -103t19 -40.5v3zM727 1487l-629 -1487h-90l629 1487h90zM920 98
q-14 -61 -37 -108q-86 22 -183 22q-40 0 -204 -16q39 112 196 266q133 133 133 244q0 68 -40.5 109.5t-106.5 41.5q-48 0 -82.5 -30t-34.5 -72q0 -68 51 -68q20 0 54 37q16 -32 16 -37q0 -3 -2.5 -8.5t-3.5 -5.5v4q0 -71 -70 -71q-43 0 -70.5 33t-27.5 87q0 71 59 117.5
t148 46.5q92 0 147.5 -52t55.5 -138q0 -73 -46 -133t-186 -177q-88 -70 -100 -118q55 11 334 26z" />
    <glyph glyph-name="onequarter" unicode="&#xbc;" horiz-adv-x="978" 
d="M201 834q0 -7 -29 -25t-49 -18t-34.5 61t-14.5 141q0 103 49 361q-65 0 -68 8q-33 0 -37 4v37q20 0 58 14.5t45 28.5q18 38 69 41l5 -14q-33 -205 -39 -255.5t-6 -127.5q0 -53 10 -115.5t22 -103t19 -40.5v3zM727 1487l-629 -1487h-90l629 1487h90zM961 365
q0 -69 -44 -94t-194 -44q0 -77 33 -186q-23 -8 -94 -41q-3 19 -8 51t-13.5 88.5t-15.5 100.5q-154 0 -281 -37q64 455 477 563q-44 -83 -77 -221t-33 -242q0 -16 30 -16q107 3 138.5 12t31.5 41q0 10 -41 31q17 45 45 45q14 0 30 -18t16 -33zM727 688q-115 -64 -202 -177.5
t-115 -234.5q58 24 141 27q75 3 82 10q6 161 94 375z" />
    <glyph glyph-name="threequarters" unicode="&#xbe;" horiz-adv-x="1155" 
d="M487 1044q0 -104 -95.5 -186t-215.5 -82q-78 0 -124 34t-46 91q0 29 20 49.5t48 20.5q35 0 46 -14.5t21 -61.5q-28 4 -35 4q-16 0 -16 -8v-6q-22 0 -22 -13q0 -22 30.5 -41.5t63.5 -19.5q90 0 162.5 71t72.5 156q0 59 -43 101.5t-110 42.5q-33 0 -138 -31q1 20 36 57
t196 193h-176q-29 0 -43.5 -5t-50.5 -24q-12 0 -30 24.5t-18 39.5q0 5 21 16t61 22t82 11q18 0 174 -23q5 0 56 13q19 0 43 -15l-205 -215q25 -7 78 -22.5t78 -22.5q79 -40 79 -156zM891 1487l-629 -1487h-90l629 1487h90zM1124 365q0 -70 -43.5 -94.5t-193.5 -43.5
q0 -77 33 -186q-28 -10 -95 -41q-3 19 -8 51t-13.5 88.5t-15.5 100.5q-153 0 -280 -37q64 455 477 563q-44 -84 -77.5 -221.5t-33.5 -241.5q0 -16 31 -16q107 3 138.5 12t31.5 41q0 10 -41 31q17 45 45 45q13 0 29 -18t16 -33zM891 688q-115 -64 -202.5 -178t-115.5 -234
q58 24 142 27q75 3 82 10q6 161 94 375z" />
    <glyph glyph-name="mu1" unicode="&#xb5;" horiz-adv-x="1138" 
d="M981 20h-129l-4 144l-25 31q-66 -113 -142 -159t-194 -46q-102 0 -153 69h-35v-462h-139v1454h139v-691q0 -256 227 -256q147 0 231.5 102.5t84.5 274.5v570h139v-1031z" />
  </font>
</defs>
</svg>
